<?xml version="1.0" encoding="UTF-8"?>
<svg xmlns="http://www.w3.org/2000/svg" baseProfile="tiny" version="1.2" viewBox="0 0 100 100">
  <!-- Generator: Adobe Illustrator 28.6.0, SVG Export Plug-In . SVG Version: 1.2.0 Build 709)  -->
  <g>
    <g id="Layer_1">
      <path d="M20.2,17.4c-.1.3-.3.6-.4.9.1-.3.2-.6.4-.9Z" fill="#9aa861"/>
      <path d="M21.8,29.7h0c-1.8-2.2-2.6-4.8-2.6-7.3s0-1.5.2-2.2c-.1.7-.2,1.4-.2,2.2,0,2.6.9,5.1,2.6,7.3h0Z" fill="#9aa861"/>
      <path d="M39.5,22.4c0,5.3-4.6,9.5-10,8.9-4.1-.5-7.4-3.8-7.9-7.9-.6-5.4,3.6-10,8.9-10s1.4,0,2,.2c-.4.7-.5,1.6-.4,2.5.3,1.6,1.7,2.8,3.3,3,1.2.1,2.2-.3,3-1,.7,1.3,1,2.7,1,4.2Z" fill="#9aa861"/>
      <path d="M51.1,10.5h0c0,0,0,.1,0,.2h0s0,0,0,0c0,0,0,0,0,0,0,.1-.1.2-.2.3,0,0,0,0-.1.1h0s0,0-.1,0-.1,0-.2,0c0,0,0,0,0,0,0,0,0,0-.1,0-.2,0-.5,0-.6-.3,0,0,0,0-.1-.1,0,0,0,0,0-.1,0,0,0,0,0,0,0,0,0,0,0-.1,0,0,0-.1,0-.2,0-.5.4-.9.9-.9s.1,0,.2,0c0,0,0,0,.1,0,0,0,0,0,0,0,0,0,0,0,0,0,0,0,0,0,0,0,0,0,0,0,0,0,0,0,0,0,0,0h0s0,0,0,.1c0,0,0,0,0,0,0,0,0,0,0,0,0,0,0,0,0,0,0,0,0,0,0,.1,0,0,0,.1,0,.2h0Z" fill="#9aa861"/>
      <path d="M53.9,13.8s0,0,0,.1c0,0,0,0,0,.1,0,0,0,.2,0,.2,0,0,0,0,0,0s0,0,0,0c0,0,0,.1,0,.2,0,0,0,.1-.1.2,0,0,0,.1-.1.2,0,0-.1.1-.2.2,0,0-.1.1-.2.2,0,0,0,0-.1,0-.1,0-.2.1-.4.1,0,0,0,0,0,0,0,0-.1,0-.2,0,0,0,0,0-.1,0,0,0,0,0-.1,0-.4,0-.7-.1-1-.3,0,0-.2-.1-.3-.2,0,0-.1-.1-.2-.2,0,0,0,0,0,0,0,0,0-.1-.1-.2,0,0,0-.1,0-.2,0-.2-.1-.5-.1-.7s0-.1,0-.2c0,0,0,0,0-.1,0,0,0,0,0-.1,0,0,0,0,0,0h0s0,0,0,0c0,0,0-.2,0-.2,0,0,0,0,0-.1,0,0,0-.1.1-.2s0,0,0,0c0,0,0,0,0,0,0,0,0,0,0,0,0,0,0,0,0,0h0s0,0,0,0c0,0,.1,0,.2,0,0,0,.2,0,.3-.1,0,0,.1,0,.2,0,0,0,0,0,0,0s0,0,0,0c0,0,.1,0,.2,0,1,0,1.8.8,1.8,1.8h0Z" fill="#9aa861"/>
      <path d="M49,8.9c0,.1,0,.3,0,.4s0,.2,0,.2c0,0,0,0,0,0,0,0,0,0,0,0h0c0,.1,0,.2,0,.2,0,0,0,0,0,0,0,0,0,.2,0,.2,0,0,0,.2,0,.2,0,.1,0,.2-.1.3,0,0,0,.1,0,.2,0,.2-.2.3-.3.5,0,0,0,0-.1.1,0,0,0,.1-.2.2-.1.1-.3.3-.5.4-.1,0-.3.2-.5.3,0,0,0,0-.1,0,0,0-.2,0-.2,0,0,0-.2,0-.3,0-.2,0-.4,0-.6,0s-.3,0-.5,0c0,0-.2,0-.3,0,0,0-.2,0-.2,0-.2,0-.3-.1-.5-.2,0,0-.1,0-.2-.1,0,0-.1,0-.2-.1,0,0-.1,0-.2-.2,0,0-.1-.1-.2-.2-.1-.1-.2-.2-.3-.4,0,0,0-.1-.1-.2,0-.1-.1-.2-.2-.3,0,0,0-.2-.1-.3,0,0,0,0,0,0h0c1.9-.8,4-1.3,6.2-1.4h0Z" fill="#9aa861"/>
      <path d="M59,11.1c-.3.4-.7.6-1.2.6s-.9-.2-1.2-.5c-.4.3-1,.5-1.6.5s-.2,0-.3,0c0,0-.1,0-.2,0,0,0,0,0,0,0h0c0,0-.1,0-.2,0-.2,0-.4-.1-.6-.2-.8-.4-1.3-1.3-1.3-2.2h0c1.3,0,2.6.3,3.7.7.4.1.8.3,1.2.4.6.2,1.1.5,1.7.8h0Z" fill="#9aa861"/>
      <path d="M69.6,46.5h0c0,0,0,.2,0,.3h0c0,.2,0,.3,0,.4-.1.7-.2,1.4-.4,2,0,.1,0,.3-.1.4,0,0,0,.1,0,.2,0,.1,0,.2-.1.4,0,.1,0,.2-.1.3,0,0,0,.2,0,.3-.2.6-.4,1.1-.7,1.7h0c0,.1-.1.3-.2.4-.4.9-.9,1.7-1.4,2.5h0c0,.1-.2.3-.3.4h0c-.1.2-.3.4-.4.6,0,.1-.2.2-.2.3-.2.3-.5.6-.8.9-.3.3-.5.6-.8.9-.2.2-.4.4-.6.5-.1,0-.2.2-.3.3-.2.2-.4.4-.7.6-.1,0-.2.2-.3.3-.3.2-.5.4-.8.6,0,0-.2.1-.3.2-.1,0-.2.2-.3.2-.1,0-.3.2-.4.3-.4.3-.8.5-1.3.7h0c-.4.2-.9.4-1.3.6-.1,0-.3.1-.4.2-.1,0-.2,0-.3.1-.2,0-.4.1-.5.2h0c-.2,0-.3.1-.5.2-.1,0-.3,0-.4.1h0c-.1,0-.3,0-.4.1-.3,0-.6.2-.9.2,0,0-.2,0-.3,0-.4,0-.7.2-1.1.2-.2,0-.3,0-.5,0-.1,0-.2,0-.3,0-.6,0-1.2,0-1.8,0s-1.2,0-1.8,0c-.1,0-.2,0-.3,0-.5,0-1-.1-1.6-.2-.1,0-.2,0-.3,0-.3,0-.6-.1-.9-.2-.3,0-.5-.2-.8-.2h0c-.1,0-.3,0-.4-.1-.1,0-.3,0-.4-.2,0,0,0,0,0,0h0s0,0,0,0h0s0,0,0,0c0,0,0,0,0,0h0s0,0,0,0c0,0,0,0-.1,0-.1,0-.2,0-.4-.1s-.2-.1-.4-.2c-.2,0-.4-.2-.5-.2-.1,0-.2-.1-.4-.2-.7-.3-1.3-.7-1.9-1.1-.1,0-.3-.2-.4-.3-.1,0-.3-.2-.4-.3-.1,0-.3-.2-.4-.3-.1,0-.2-.2-.4-.3-.1-.1-.3-.2-.4-.3-.1-.1-.2-.2-.4-.3,0,0,0,0-.1-.1,0,0-.2-.1-.2-.2,0,0-.1-.1-.2-.2,0,0-.1-.1-.2-.2h0c-.8-.7-1.5-1.5-2.1-2.4,0-.1-.2-.2-.2-.3-.6-.9-1.2-1.8-1.7-2.7-.1-.2-.2-.5-.4-.7,0-.1-.1-.3-.2-.4s-.1-.3-.2-.4c0-.1-.1-.3-.2-.4,0-.1-.1-.3-.2-.4s-.1-.3-.1-.4h0c0-.1,0-.3-.1-.4,0-.3-.2-.6-.2-.9,0-.1,0-.3,0-.4,0-.1,0-.3,0-.4,0,0,0,0,0,0,0-.2,0-.3,0-.5s0-.3,0-.5c0-.1,0-.3,0-.4h0c-.2-1.4.3-2.7,1.2-3.6.2-.2.4-.4.6-.5,0,0,.2-.1.3-.2.2-.1.4-.2.7-.3.1,0,.2,0,.3-.1.1,0,.3,0,.4,0,.2,0,.4,0,.6,0h30.7c.9,0,1.7.3,2.4.7.2.2.4.3.6.5.6.6,1,1.3,1.1,2.1,0,0,0,.1,0,.2,0,.1,0,.2,0,.3,0,.2,0,.4,0,.5h0Z" fill="#9aa861"/>
      <path d="M61.9,30.7c-.3-.3-.6-.6-.9-1h0c.3.3.6.7.9,1h0Z" fill="#9aa861"/>
      <path d="M78.6,23.4h0c-.4,3.9-4.1,7.6-8,8-5.6.6-10.3-4-9.9-9.6.3-4.7,4.4-8.4,9.2-8.3.7,0,1.4.1,2,.3-.4.6-.5,1.4-.5,2.2.1,1.7,1.5,3.2,3.2,3.4,1.2.2,2.3-.2,3.1-.9.7,1.5,1.1,3.2.9,4.9h0Z" fill="#9aa861"/>
      <path d="M77.8,30.5h0c3.2-3.2,4.1-7.8,2.7-11.8h0c1.4,4,.5,8.6-2.7,11.8Z" fill="#9aa861"/>
      <g id="Frog">
        <g id="Frog-2">
          <g>
            <path d="M20.8,17.4c.1-.3.2-.6.4-.9-.1.3-.3.6-.4.9ZM22.7,28.7c-1.8-2.1-2.6-4.7-2.6-7.3s0-1.5.2-2.2c-.1.7-.2,1.4-.2,2.2,0,2.6.9,5.1,2.6,7.3h0c0,0,0,0,0,0ZM23.4,13.4c0,0-.1.1-.2.2,0,0,.1-.1.2-.2h0ZM28.2,10.5s0,0,.2,0h0c0,0-.1,0-.2,0ZM22.7,28.7c-1.8-2.1-2.6-4.7-2.6-7.3s0-1.5.2-2.2c-.1.7-.2,1.4-.2,2.2,0,2.6.9,5.1,2.6,7.3h0c0,0,0,0,0,0ZM20.8,17.4c.1-.3.2-.6.4-.9-.1.3-.3.6-.4.9ZM32.3,49c0-.3-.2-.6-.2-.9,0-.1,0-.3,0-.4,0,.1,0,.3,0,.4,0,.3.2.6.2.9,0,.1,0,.3.1.4h0c0-.1,0-.3-.1-.4h0ZM33.7,41.6c.2-.1.4-.2.7-.3-.2,0-.5.2-.7.3ZM44.2,62h0,0,0ZM50,8.4c0-.1,0-.3,0-.4h0c0,.1,0,.3,0,.4s0,.2,0,.2c0,0,0-.2,0-.2h0ZM66.4,41.1h-30.7c-.2,0-.4,0-.6,0,.2,0,.4,0,.6,0h30.7c.9,0,1.7.3,2.4.7-.7-.5-1.5-.7-2.4-.7h0ZM80,14.9c-.1-.2-.3-.4-.4-.5.1.2.3.4.4.5.2.2.3.5.5.8-.2-.3-.3-.5-.5-.8h0ZM81.5,17.8h0c1.4,4,.5,8.6-2.7,11.8h0c3.2-3.2,4.1-7.8,2.7-11.8Z" fill="#9aa861"/>
            <path d="M84.5,21c0,0-.1-.2-.2-.3,0,0,0,0,0,0-.2-3.6-1.8-7.1-4.9-9.6h-.1c-2.5-2.2-5.6-3.2-8.6-3.2s-.3,0-.4,0c-1,0-2.1.2-3.1.4-5.3-2.2-11.1-3.4-17.2-3.4s-11.4,1.1-16.4,3.1c0,0,0,0,0,0,0,0,0,0,0,0-.9-.1-1.7-.2-2.6-.2-3.3.1-6.5,1.5-9,3.9-1.7,1.7-2.9,3.8-3.5,6-8.3,8.2-13.4,19.5-13.4,32,0,12.4,5,23.6,13.1,31.8,0,0,0,0,0,0,0,0,.1.1.2.2,2.3,2.3,4.8,4.3,7.6,6,0,0,0,0,0,0h0c7,4.4,15.2,7,24.1,7,8.9,0,17.2-2.6,24.2-7,0,0,0,0,0,0,0,0,0,0,0,0,0,0,0,0,0,0,1.1-.7,2.3-1.5,3.3-2.3.4-.3.8-.6,1.2-1,1.9-1.6,3.6-3.3,5.3-5.1,0,0,.1-.1.2-.2,6.8-7.9,10.9-18.1,10.9-29.3,0-11-4-21.2-10.6-29h0ZM57.2,8.9c.4.1.8.3,1.2.4.6.2,1.1.5,1.7.8-.3.4-.7.6-1.2.6s-.9-.2-1.2-.5c-.4.3-1,.5-1.6.5s-.2,0-.3,0c0,0-.1,0-.2,0,0,0,0,0,0,0h0c0,0-.1,0-.2,0-.2,0-.4-.1-.6-.2-.8-.4-1.3-1.3-1.3-2.2h0c1.3,0,2.6.3,3.7.7h0ZM51.4,8.7s0,0,.1,0c0,0,0,0,0,0,0,0,0,0,0,0,0,0,0,0,0,0h0s0,0,0,.1h0s0,0,0,.1c0,0,0,0,0,0,0,0,0,0,0,0,0,0,0,0,0,0,0,0,0,0,0,.1,0,0,0,.1,0,.2h0c0,0,0,.1,0,.2h0s0,0,0,0c0,0,0,0,0,0,0,.1-.1.2-.2.3,0,0,0,0-.1.1h0s0,0-.1,0-.1,0-.2,0c0,0,0,0,0,0,0,0,0,0-.1,0-.2,0-.5,0-.6-.3,0,0,0,0-.1-.1,0,0,0,0,0-.1,0,0,0,0,0,0,0,0,0,0,0-.1,0,0,0-.1,0-.2,0-.5.4-.9.9-.9s.1,0,.2,0h0ZM51.3,12.6s0,0,0-.1c0,0,0,0,0-.1,0,0,0,0,0,0h0s0,0,0,0c0,0,0-.2,0-.2,0,0,0,0,0-.1,0,0,0-.1.1-.2s0,0,0,0c0,0,0,0,0,0,0,0,0,0,0,0,0,0,0,0,0,0h0s0,0,0,0c0,0,.1,0,.2,0,0,0,.2,0,.3-.1,0,0,.1,0,.2,0,0,0,0,0,0,0s0,0,0,0c0,0,.1,0,.2,0,1,0,1.8.8,1.8,1.8s0,0,0,.1c0,0,0,0,0,.1,0,0,0,.2,0,.2,0,0,0,0,0,0s0,0,0,0c0,0,0,.1,0,.2,0,0,0,.1-.1.2,0,0,0,.1-.1.2s-.1.1-.2.2c0,0-.1.1-.2.2,0,0,0,0-.1,0-.1,0-.2.1-.4.1,0,0,0,0,0,0,0,0-.1,0-.2,0,0,0,0,0-.1,0,0,0,0,0-.1,0-.4,0-.7-.1-1-.3,0,0-.2-.1-.3-.2,0,0-.1-.1-.2-.2,0,0,0,0,0,0,0,0,0-.1-.1-.2,0,0,0-.1,0-.2,0-.2-.1-.5-.1-.7s0-.1,0-.2h0ZM43.8,9.4c1.9-.8,4-1.3,6.2-1.4h0c0,.1,0,.3,0,.4s0,.2,0,.2c0,0,0,0,0,0,0,0,0,0,0,0h0c0,.1,0,.2,0,.2,0,0,0,0,0,0,0,0,0,.2,0,.2,0,0,0,.2,0,.2,0,.1,0,.2-.1.3,0,0,0,.1,0,.2,0,.2-.2.3-.3.5,0,0,0,0-.1.1,0,0,0,.1-.2.2-.1.1-.3.3-.5.4-.1,0-.3.2-.5.3,0,0,0,0-.1,0,0,0-.2,0-.2,0,0,0-.2,0-.3,0-.2,0-.4,0-.6,0s-.3,0-.5,0c0,0-.2,0-.3,0,0,0-.2,0-.2,0-.2,0-.3-.1-.5-.2,0,0-.1,0-.2-.1,0,0-.1,0-.2-.1,0,0-.1,0-.2-.2,0,0-.1-.1-.2-.2-.1-.1-.2-.2-.3-.4,0,0,0-.1-.1-.2,0-.1-.1-.2-.2-.3,0,0,0-.2-.1-.3,0,0,0,0,0,0h0ZM23.6,29.7c-.2-.1-.3-.3-.4-.4-.1-.2-.3-.3-.4-.5h0c-1.8-2.2-2.6-4.8-2.6-7.3s0-1.5.2-2.2c0-.2,0-.4.1-.5,0-.3.2-.6.3-.9,0-.2.1-.3.2-.5.1-.3.2-.6.4-.9.1-.3.3-.6.5-.9,0-.1.2-.3.3-.4.2-.3.5-.7.7-1h0c.1-.1.2-.3.3-.4,0,0,.1-.1.2-.2,0,0,.1-.1.2-.2h0c1.4-1.4,3-2.3,4.8-2.9,0,0,0,0,.2,0h0c2.4-.7,5-.5,7.3.4h0c1,.4,1.9,1,2.8,1.7,0,0,0,0,.1.1h0c.4.4.7.7,1,1,.2.2.3.3.4.5.1.2.3.3.4.5,3.3,4.4,3,10.8-1.1,14.9h0c-3.6,3.6-8.8,4.3-13,2.2-1.1-.5-2.1-1.2-2.9-2.1h0ZM70.6,45.5c0,0,0,.2,0,.2h0c0,.2,0,.3,0,.4-.1.7-.2,1.4-.4,2,0,.1,0,.3-.1.4,0,0,0,.1,0,.2,0,.1,0,.2-.1.4,0,.1,0,.2-.1.3,0,0,0,.2,0,.3-.2.6-.4,1.1-.7,1.7h0c0,.1-.1.3-.2.4-.4.9-.9,1.7-1.4,2.5h0c0,.1-.2.3-.3.4h0c-.1.2-.3.4-.4.6,0,.1-.2.2-.2.3-.2.3-.5.6-.8.9-.3.3-.5.6-.8.9-.2.2-.4.4-.6.5-.1,0-.2.2-.3.3-.2.2-.4.4-.7.6-.1,0-.2.2-.3.3-.3.2-.5.4-.8.6,0,0-.2.1-.3.2-.1,0-.2.2-.3.2-.1,0-.3.2-.4.3-.4.3-.8.5-1.3.7h0c-.4.2-.9.4-1.3.6-.1,0-.3.1-.4.2-.1,0-.2,0-.3.1-.2,0-.4.1-.5.2h0c-.2,0-.3.1-.5.2-.1,0-.3,0-.4.1h0c-.1,0-.3,0-.4.1-.3,0-.6.2-.9.2,0,0-.2,0-.3,0-.4,0-.7.2-1.1.2-.2,0-.3,0-.5,0-.1,0-.2,0-.3,0-.6,0-1.2,0-1.8,0s-1.2,0-1.8,0c-.1,0-.2,0-.3,0-.5,0-1-.1-1.6-.2-.1,0-.2,0-.3,0-.3,0-.6-.1-.9-.2-.3,0-.5-.2-.8-.2h0c-.1,0-.3,0-.4-.1-.1,0-.3,0-.4-.2,0,0,0,0,0,0h0s0,0,0,0h0s0,0,0,0c0,0,0,0,0,0h0s0,0,0,0c0,0,0,0-.1,0-.1,0-.2,0-.4-.1s-.2-.1-.4-.2c-.2,0-.4-.2-.5-.2-.1,0-.2-.1-.4-.2-.7-.3-1.3-.7-1.9-1.1-.1,0-.3-.2-.4-.3-.1,0-.3-.2-.4-.3-.1,0-.3-.2-.4-.3-.1,0-.2-.2-.4-.3-.1-.1-.3-.2-.4-.3-.1-.1-.2-.2-.4-.3,0,0,0,0-.1-.1,0,0-.2-.1-.2-.2,0,0-.1-.1-.2-.2,0,0-.1-.1-.2-.2h0c-.8-.7-1.5-1.5-2.1-2.4,0-.1-.2-.2-.2-.3-.6-.9-1.2-1.8-1.7-2.7-.1-.2-.2-.5-.4-.7,0-.1-.1-.3-.2-.4s-.1-.3-.2-.4c0-.1-.1-.3-.2-.4,0-.1-.1-.3-.2-.4s-.1-.3-.1-.4h0c0-.1,0-.3-.1-.4,0-.3-.2-.6-.2-.9,0-.1,0-.3,0-.4,0-.1,0-.3,0-.4,0,0,0,0,0,0,0-.2,0-.3,0-.5s0-.3,0-.5c0-.1,0-.3,0-.4h0c-.2-1.4.3-2.7,1.2-3.6.2-.2.4-.4.6-.5,0,0,.2-.1.3-.2.2-.1.4-.2.7-.3.1,0,.2,0,.3-.1.1,0,.3,0,.4,0,.2,0,.4,0,.6,0h30.7c.9,0,1.7.3,2.4.7.2.2.4.3.6.5.6.6,1,1.3,1.1,2.1,0,0,0,.1,0,.2,0,.1,0,.2,0,.3,0,.2,0,.4,0,.5h0s0,0,0,0ZM78.8,29.6h0c-.9,1-2,1.7-3.1,2.2-4.2,2-9.3,1.3-12.8-2-.3-.3-.6-.6-.9-1h0c-1.8-2.2-2.6-4.8-2.6-7.3s1.1-5.8,3.3-8c.3-.3.6-.6,1-.9,2.1-1.7,4.7-2.5,7.3-2.5h0c1.5,0,2.9.3,4.3.9,1,.4,1.9,1,2.8,1.7h0c.3.3.6.6.8.8.1.1.2.2.3.3.2.2.3.3.4.5.1.2.3.4.4.5.2.2.3.5.5.8s.3.5.4.8c.2.3.3.6.4,1,0,.1,0,.3.1.4h0c1.4,4,.5,8.6-2.7,11.8h0Z" fill="#9aa861"/>
            <path d="M40.6,14.7c-.1-.2-.3-.3-.4-.5-.1-.2-.3-.3-.4-.5-.3-.3-.6-.6-1-.9h0c0-.1,0-.2-.1-.2-.9-.7-1.8-1.3-2.8-1.7h0c-2.4-1-4.9-1.1-7.3-.4,0,0,0,0,0,0,0,0-.1,0-.2,0-1.8.5-3.4,1.5-4.8,2.9,0,0-.1.1-.2.2,0,0-.1.1-.2.2-.1.1-.2.2-.3.4h0c-.3.3-.5.6-.7,1,0,.1-.2.3-.3.4-.2.3-.3.6-.5.9-.1.3-.3.6-.4.9,0,.2-.1.3-.2.5-.1.3-.2.6-.3.9,0,.2,0,.4-.1.5-.1.7-.2,1.4-.2,2.2,0,2.6.9,5.1,2.6,7.3h0c.1.3.3.4.4.6.1.2.3.3.4.4.9.9,1.9,1.5,2.9,2.1,4.2,2,9.5,1.4,13-2.2h0c4.1-4.1,4.4-10.5,1.1-14.9h0ZM30.5,30.4c-4.1-.5-7.4-3.8-7.9-7.9-.6-5.4,3.6-10,8.9-10s1.4,0,2,.2c-.4.7-.5,1.6-.4,2.5.3,1.6,1.7,2.8,3.3,3,1.2.1,2.2-.3,3-1,.7,1.3,1,2.7,1,4.2,0,5.3-4.6,9.5-10,8.9Z" fill="#fbfcf7"/>
            <path d="M80,14.9c-.1-.2-.3-.4-.4-.5.1.2.3.4.4.5.2.2.3.5.5.8-.2-.3-.3-.5-.5-.8h0ZM81.5,17.8h0c1.4,4,.5,8.6-2.7,11.8h0c3.2-3.2,4.1-7.8,2.7-11.8Z" fill="#f6f7f2"/>
            <path d="M81.5,17.8c0-.1,0-.3-.1-.4-.1-.3-.3-.7-.4-1-.1-.3-.3-.5-.4-.8s-.3-.5-.5-.8c-.1-.2-.3-.4-.4-.5-.1-.2-.3-.3-.4-.5,0-.1-.2-.2-.3-.3-.3-.3-.5-.5-.8-.8h0c-.9-.8-1.8-1.3-2.8-1.8-1.4-.6-2.8-.9-4.3-.9h0c-2.6,0-5.2.8-7.3,2.5-.3.3-.7.6-1,.9-2.2,2.2-3.3,5.1-3.3,8s.9,5.1,2.6,7.3h0c.3.4.6.8.9,1.1,3.5,3.3,8.6,4.1,12.8,2,1.1-.5,2.2-1.3,3.1-2.2h0c3.2-3.2,4.1-7.8,2.7-11.8h0ZM79.6,22.4c-.4,3.9-4.1,7.6-8,8-5.6.6-10.3-4-9.9-9.6.3-4.7,4.4-8.4,9.2-8.3.7,0,1.4.1,2,.3-.4.6-.5,1.4-.5,2.2.1,1.7,1.5,3.2,3.2,3.4,1.2.2,2.3-.2,3.1-.9.7,1.5,1.1,3.2.9,4.9h0Z" fill="#fbfcf7"/>
            <path d="M79.6,22.4h0c-.4,3.9-4.1,7.6-8,8-5.6.6-10.3-4-9.9-9.6.3-4.7,4.4-8.4,9.2-8.3.7,0,1.4.1,2,.3-.4.6-.5,1.4-.5,2.2.1,1.7,1.5,3.2,3.2,3.4,1.2.2,2.3-.2,3.1-.9.7,1.5,1.1,3.2.9,4.9h0Z" fill="#2f301a"/>
            <path d="M70.5,46.4c0-.1,0-.2,0-.3,0,0,0-.1,0-.2-.2-.8-.6-1.5-1.1-2.1-.2-.2-.4-.4-.6-.5-.7-.5-1.5-.7-2.4-.7h-30.7c-.2,0-.4,0-.6,0-.1,0-.3,0-.4,0-.1,0-.2,0-.3.1-.2,0-.5.2-.7.3-.1,0-.2.1-.3.2-.2.2-.4.3-.6.5-.9.9-1.4,2.2-1.2,3.5h0c0,.2,0,.3,0,.5,0,.2,0,.3,0,.5s0,.3,0,.5c0,0,0,0,0,0,0,.1,0,.3,0,.4,0,.1,0,.3,0,.4,0,.3.2.6.2.9,0,.1,0,.3.1.4h0c0,.2,0,.3.1.4s.1.3.2.4c0,.1.1.3.2.4,0,.1.1.3.2.4s.1.3.2.4c.1.3.2.5.4.7.5.9,1,1.9,1.7,2.7,0,.1.2.2.2.3.6.8,1.3,1.6,2.1,2.4,0,0,.1.1.2.2,0,0,.1.1.2.2,0,0,.2.1.2.2,0,0,0,0,.1.1.1.1.2.2.4.3.1.1.3.2.4.3.1,0,.2.2.4.3.1,0,.3.2.4.3.1,0,.3.2.4.3s.3.2.4.3c.6.4,1.3.8,1.9,1.1.1,0,.2.1.4.2.1,0,.3.2.5.2.1,0,.2.1.4.2.1,0,.2.1.4.1,0,0,0,0,.1,0,0,0,0,0,0,0h0s0,0,0,0c0,0,0,0,0,0h0s0,0,0,0h0s0,0,0,0c.1,0,.3.1.4.2.1,0,.3,0,.4.1.3,0,.5.2.8.2.3,0,.6.2.9.2.1,0,.2,0,.3,0,.5.1,1,.2,1.6.2.1,0,.2,0,.3,0,.6,0,1.2,0,1.8,0s1.2,0,1.8,0c.1,0,.2,0,.3,0,.2,0,.3,0,.5,0,.4,0,.7-.1,1.1-.2,0,0,.2,0,.3,0,.3,0,.6-.1.9-.2.1,0,.3,0,.4-.1h0c.1,0,.3,0,.4-.1.2,0,.4-.1.5-.2h0c.2,0,.4-.1.5-.2.1,0,.2,0,.3-.1.1,0,.3-.1.4-.2.4-.2.9-.4,1.3-.6h0c.4-.2.8-.5,1.3-.7.1,0,.3-.2.4-.3.1,0,.2-.1.3-.2,0,0,.2-.1.3-.2.3-.2.5-.4.8-.6.1,0,.2-.2.3-.3.2-.2.4-.4.7-.6.1,0,.2-.2.3-.3.2-.2.4-.4.6-.5.3-.3.5-.6.8-.9s.5-.6.8-.9c0-.1.2-.2.2-.3.1-.2.3-.4.4-.6h0c0-.1.2-.2.3-.4h0c.5-.8,1-1.6,1.4-2.5,0-.1.1-.3.2-.4h0c.2-.6.5-1.1.7-1.7,0,0,0-.2,0-.3,0,0,0-.2.1-.3,0-.1,0-.2.1-.4,0,0,0-.2,0-.2,0-.2,0-.3.1-.4.2-.7.3-1.3.4-2,0-.1,0-.2,0-.3h0c0-.1,0-.2,0-.3h0c0-.2,0-.4,0-.6h0ZM68.1,47.5c-.6,3.4-2.1,6.5-4.4,9.1-.5.5-.9,1-1.4,1.4-3.2,2.8-7.2,4.4-11.3,4.4s-8.1-1.6-11.3-4.4c-.5-.4-1-.9-1.4-1.4-2.3-2.6-3.9-5.7-4.4-9.1-.2-1.4.8-2.6,2.2-2.6h29.8c.2,0,.3,0,.5,0,.2,0,.4.1.6.2.1,0,.2.2.4.2,0,0,.2.1.2.2,0,0,0,0,0,0,0,0,.1.2.2.2,0,.1.2.2.2.4,0,0,0,.1,0,.2s0,.1,0,.2c0,0,0,.1,0,.2,0,.2,0,.4,0,.6h0Z" fill="#4f542d"/>
            <path d="M70.6,45c0-.1,0-.2,0-.3,0,0,0-.1,0-.2-.2-.8-.6-1.5-1.1-2.1-.2-.2-.4-.4-.6-.5-.7-.5-1.5-.7-2.4-.7h-30.7c-.2,0-.4,0-.6,0-.1,0-.3,0-.4,0-.1,0-.2,0-.3.1-.2,0-.5.2-.7.3-.1,0-.2.1-.3.2-.2.2-.4.3-.6.5-.9.9-1.4,2.2-1.2,3.5h0c0,.2,0,.3,0,.5,0,.2,0,.3,0,.5s0,.3,0,.5c0,0,0,0,0,0,0,.1,0,.3,0,.4,0,.1,0,.3,0,.4,0,.3.2.6.2.9,0,.1,0,.3.1.4h0c0,.2,0,.3.1.4s.1.3.2.4c0,.1.1.3.2.4,0,.1.1.3.2.4s.1.3.2.4c.1.3.2.5.4.7.5.9,1,1.9,1.7,2.7,0,.1.2.2.2.3.6.8,1.3,1.6,2.1,2.4,0,0,.1.1.2.2,0,0,.1.1.2.2,0,0,.2.1.2.2,0,0,0,0,.1.1.1.1.2.2.4.3.1.1.3.2.4.3.1,0,.2.2.4.3.1,0,.3.2.4.3.1,0,.3.2.4.3s.3.2.4.3c.6.4,1.3.8,1.9,1.1.1,0,.2.1.4.2.1,0,.3.2.5.2.1,0,.2.1.4.2.1,0,.2.1.4.1,0,0,0,0,.1,0,0,0,0,0,0,0h0s0,0,0,0c0,0,0,0,0,0h0s0,0,0,0h0s0,0,0,0c.1,0,.3.1.4.2.1,0,.3,0,.4.1.3,0,.5.2.8.2.3,0,.6.2.9.2.1,0,.2,0,.3,0,.5.1,1,.2,1.6.2.1,0,.2,0,.3,0,.6,0,1.2,0,1.8,0s1.2,0,1.8,0c.1,0,.2,0,.3,0,.2,0,.3,0,.5,0,.4,0,.7-.1,1.1-.2,0,0,.2,0,.3,0,.3,0,.6-.1.9-.2.1,0,.3,0,.4-.1h0c.1,0,.3,0,.4-.1.2,0,.4-.1.5-.2h0c.2,0,.4-.1.5-.2.1,0,.2,0,.3-.1.1,0,.3-.1.4-.2.4-.2.9-.4,1.3-.6h0c.4-.2.8-.5,1.3-.7.1,0,.3-.2.4-.3.1,0,.2-.1.3-.2,0,0,.2-.1.3-.2.3-.2.5-.4.8-.6.1,0,.2-.2.3-.3.2-.2.4-.4.7-.6.1,0,.2-.2.3-.3.2-.2.4-.4.6-.5.3-.3.5-.6.8-.9s.5-.6.8-.9c0-.1.2-.2.2-.3.1-.2.3-.4.4-.6h0c0-.1.2-.2.3-.4h0c.5-.8,1-1.6,1.4-2.5,0-.1.1-.3.2-.4h0c.2-.6.5-1.1.7-1.7,0,0,0-.2,0-.3,0,0,0-.2.1-.3,0-.1,0-.2.1-.4,0,0,0-.2,0-.2,0-.2,0-.3.1-.4.2-.7.3-1.3.4-2,0-.1,0-.2,0-.3h0c0-.1,0-.2,0-.3h0c0-.2,0-.4,0-.6h0ZM68.2,46.1c-.6,3.4-2.1,6.5-4.4,9.1-.5.5-.9,1-1.4,1.4-3.2,2.8-7.2,4.4-11.3,4.4s-8.1-1.6-11.3-4.4c-.5-.4-1-.9-1.4-1.4-2.3-2.6-3.9-5.7-4.4-9.1-.2-1.4.8-2.6,2.2-2.6h29.8c.2,0,.3,0,.5,0,.2,0,.4.1.6.2.1,0,.2.2.4.2,0,0,.2.1.2.2,0,0,0,0,0,0,0,0,.1.2.2.2,0,.1.2.2.2.4,0,0,0,.1,0,.2s0,.1,0,.2c0,0,0,.1,0,.2,0,.2,0,.4,0,.6h0Z" fill="#788248"/>
            <path d="M68.2,46.1c-.6,3.4-2.1,6.5-4.4,9.1-.5.5-.9,1-1.4,1.4-3.2-2.8-7.2-4.4-11.3-4.4s-8.1,1.6-11.3,4.4c-.5-.4-1-.9-1.4-1.4-2.3-2.6-3.9-5.7-4.4-9.1-.2-1.4.8-2.6,2.2-2.6h.1c.3,2.6,1.5,4.5,3,4.5.7,0,1.4-.4,1.9-1.2.5.7,1.2,1.1,1.9,1.2.6,0,1.1-.3,1.6-.8.5.5,1,.8,1.5.8.6,0,1.3-.3,1.8-1,.5.6,1.1.9,1.7,1,.7,0,1.4-.4,1.9-1.2.5.7,1.2,1.1,1.9,1.2.6,0,1.1-.3,1.6-.8.5.5,1,.8,1.5.8.5,0,1-.2,1.4-.6.4.4.9.6,1.4.6.6,0,1.2-.3,1.7-.9.5.6,1.1.9,1.7.9,1.5,0,2.8-1.9,3.1-4.5h.1c1.4,0,2.5,1.2,2.2,2.6h0Z" fill="#414424"/>
            <path d="M65.9,43.4c-.3,2.6-1.6,4.5-3.1,4.5-.6,0-1.2-.4-1.7-.9-.5.6-1.1.9-1.7.9-.5,0-1-.2-1.4-.6-.4.4-.9.6-1.4.6-.6,0-1.1-.3-1.5-.8-.5.5-1,.8-1.6.8-.7,0-1.3-.4-1.9-1.2-.5.7-1.2,1.2-1.9,1.2-.6,0-1.2-.4-1.7-1-.5.6-1.1,1-1.8,1-.6,0-1.1-.3-1.5-.8-.5.5-1,.8-1.6.8-.7,0-1.4-.4-1.9-1.2-.5.7-1.2,1.2-1.9,1.2-1.5,0-2.8-2-3-4.5h29.6Z" fill="#585e43"/>
            <path d="M62.4,56.6c-3.2,2.8-7.2,4.4-11.3,4.4s-8.1-1.6-11.3-4.4c3.2-2.8,7.2-4.4,11.3-4.4s8.1,1.6,11.3,4.4Z" fill="#676d3a"/>
            <path d="M28.3,10.5c0,0-.1,0-.2,0,0,0,0,0,.2,0,0,0,0,0,0,0h0ZM23.4,13.4c0,0-.1.1-.2.2,0,0,.1-.1.2-.2h0ZM22.7,28.7c-1.8-2.1-2.6-4.7-2.6-7.3s0-1.5.2-2.2c-.1.7-.2,1.4-.2,2.2,0,2.6.9,5.1,2.6,7.3h0c0,0,0,0,0,0ZM20.8,17.4c.1-.3.2-.6.4-.9-.1.3-.3.6-.4.9Z" fill="#f6f7f2"/>
            <path d="M40.5,21.5c0,5.3-4.6,9.5-10,8.9-4.1-.5-7.4-3.8-7.9-7.9-.6-5.4,3.6-10,8.9-10s1.4,0,2,.2c-.4.7-.5,1.6-.4,2.5.3,1.6,1.7,2.8,3.3,3,1.2.1,2.2-.3,3-1,.7,1.3,1,2.7,1,4.2Z" fill="#2f301a"/>
          </g>
          <path d="M65.9,43.4c-.3,2.6-1.6,4.5-3.1,4.5-.6,0-1.2-.4-1.7-.9-.5.6-1.1.9-1.7.9-.5,0-1-.2-1.4-.6-.4.4-.9.6-1.4.6-.6,0-1.1-.3-1.5-.8-.5.5-1,.8-1.6.8-.7,0-1.3-.4-1.9-1.2-.5.7-1.2,1.2-1.9,1.2-.6,0-1.2-.4-1.7-1-.5.6-1.1,1-1.8,1-.6,0-1.1-.3-1.5-.8-.5.5-1,.8-1.6.8-.7,0-1.4-.4-1.9-1.2-.5.7-1.2,1.2-1.9,1.2-1.5,0-2.8-2-3-4.5h29.6Z" fill="#fff"/>
          <path d="M60,10.2c-.3.4-.7.6-1.2.6s-.9-.2-1.2-.5c-.4.3-1,.5-1.6.5s-.2,0-.3,0c0,0-.1,0-.2,0,0,0,0,0,0,0h0c0,0-.1,0-.2,0-1.1-.3-1.8-1.3-1.8-2.5h0c1.3,0,2.6.3,3.7.7.4.1.8.3,1.2.4.6.2,1.1.5,1.7.8h0Z" fill="#788248"/>
          <path d="M50,8.4c0,0,0,.2,0,.2,0,0,0,0,0,0,0,0,0,0,0,0h0c0,.1,0,.2,0,.2,0,0,0,0,0,0,0,0,0,.2,0,.2,0,0,0,.2,0,.2,0,.1,0,.2-.1.3,0,0,0,.1,0,.2,0,.2-.2.3-.3.5,0,0,0,0-.1.1,0,0,0,.1-.2.2-.1.1-.3.3-.5.4-.1,0-.3.2-.5.3,0,0,0,0-.1,0,0,0-.2,0-.2,0,0,0-.2,0-.3,0-.2,0-.4,0-.6,0s-.4,0-.5,0c0,0-.2,0-.3,0,0,0-.2,0-.2,0-.2,0-.3-.1-.5-.2,0,0-.1,0-.2-.1,0,0-.1,0-.2-.1,0,0-.1,0-.2-.2,0,0-.1-.1-.2-.2-.1-.1-.2-.2-.3-.4,0,0,0-.1-.1-.2,0-.1-.1-.2-.2-.3,0,0,0-.2-.1-.3,0,0,0,0,0,0h0c1.9-.8,4-1.3,6.2-1.4h0c0,.1,0,.3,0,.4h0Z" fill="#788248"/>
          <path d="M52.1,9.6h0c0,0,0,.1,0,.2,0,0,0,0,0,0,0,0,0,0,0,0,0,.1-.1.2-.2.3,0,0,0,0-.1.1h0s0,0-.1,0-.1,0-.2,0c0,0,0,0,0,0,0,0,0,0-.1,0-.2,0-.5,0-.6-.3,0,0,0,0-.1-.1,0,0,0,0,0-.1,0,0,0,0,0,0,0,0,0,0,0-.1,0,0,0-.1,0-.2,0-.5.4-.9.9-.9s.1,0,.2,0c0,0,0,0,.1,0,0,0,0,0,0,0,0,0,0,0,0,0,0,0,0,0,0,0h0s0,0,0,.1h0s0,0,0,.1c0,0,0,0,0,0,0,0,0,0,0,0,0,0,0,0,0,0,0,0,0,0,0,.1,0,0,0,.1,0,.2h0Z" fill="#788248"/>
          <path d="M54.9,12.8s0,0,0,.1c0,0,0,0,0,.1,0,0,0,.2,0,.2,0,0,0,0,0,0s0,0,0,0c0,0,0,.1,0,.2,0,0,0,.1-.1.2,0,0,0,.1-.1.2,0,0-.1.1-.2.2,0,0-.1.1-.2.2,0,0,0,0-.1,0-.1,0-.2.1-.4.1,0,0,0,0,0,0,0,0-.1,0-.2,0,0,0,0,0-.1,0,0,0,0,0-.1,0-.4,0-.7-.1-1-.3,0,0-.2-.1-.3-.2,0,0-.1-.1-.2-.2,0,0,0,0,0,0,0,0,0-.1-.1-.2,0,0,0-.1,0-.2,0-.2-.1-.5-.1-.7s0-.1,0-.2c0,0,0,0,0-.1,0,0,0,0,0-.1,0,0,0,0,0,0h0s0,0,0,0c0,0,0-.2,0-.2,0,0,0,0,0-.1,0,0,0-.1.1-.2s0,0,0,0c0,0,0,0,0,0,0,0,0,0,0,0,0,0,0,0,0,0h0s0,0,0,0c0,0,.1,0,.2,0,0,0,.2,0,.3-.1,0,0,.1,0,.2,0,0,0,.1,0,.2,0s.1,0,.2,0c1,0,1.8.8,1.8,1.8h0Z" fill="#788248"/>
        </g>
      </g>
    </g>
  </g>
</svg>