<?xml version="1.0" encoding="UTF-8"?><svg id="Layer_1" xmlns="http://www.w3.org/2000/svg" viewBox="0 0 30.7021058735 30.7021058735"><defs><style>.cls-1{fill:#788248;}.cls-2,.cls-3{fill:#fff;}.cls-3{stroke:#000;stroke-miterlimit:10;}.cls-4{fill:#9aa861;}.cls-5{fill:#676d3a;}.cls-6{fill:#585e43;}.cls-7{fill:#414424;}.cls-8{fill:#2f301a;}.cls-9{fill:#f6f7f2;}</style></defs><path class="cls-3" d="M16.7698211318,2.7463079858c0,.0310294634-.0018154352.0602212162-.0072951538.0930661148-.0036531457.0255497448-.0072951538.0510994896-.0146014453.0784646696-.0145903076.0565680705-.0346714715.109494133-.0620366515.158755912-.0073062914.0164280181-.0164280181.0328448986-.0273763176.0474463438-.0127748724.018254591-.0255497448.0364980443-.0383134795.0529260624-.0164280181.0218965991-.0346714715.0419666253-.0529260624.0602100786-.0164168805.0146014453-.0328448986.0310294634-.0492729167.0437931981-.0145903076.0109482995-.02736518.0219077367-.0419666253.0310294634-.0072951538.0072951538-.0146014453.0109482995-.0218965991.0164168805-.0146014453.0091217267-.0310183257.018254591-.0474463438.0273763176-.0492617791.02736518-.1021878415.0474463438-.158755912.0620366515-.02736518.0073062914-.0529149248.0109482995-.0784646696.0146014453-.0310183257.0054797186-.0620477891.0073062914-.0930661148.0073062914-.1916008106,0-.3649581679-.0784758072-.4890426085-.2025602478-.0164168805-.0164168805-.0310183257-.0328448986-.045619771-.0492617791-.0273763176-.0328560362-.0510883519-.0693429429-.0711695158-.1076675601-.0072951538-.0146014453-.0145903076-.0310183257-.0218965991-.0474463438-.0109482995-.0237231719-.0200700262-.0474463438-.0291917529-.0711695158-.0054797186-.0200700262-.0109482995-.0383134795-.0146014453-.0583835057-.0054685809-.0237231719-.0091217267-.0492729167-.0127748724-.0729960886-.0018265729-.0109482995-.0018265729-.0218965991-.0036420081-.0310183257l-.0036531457-.0529260624c0-.0072951538,0-.0127748724.0018265729-.0200700262,0-.0072951538.0018265729-.0146014453.0018265729-.0218965991.0018154352-.0164280181,0-.0291917529.0018154352-.0437931981,0-.0073062914,0-.0164280181.0018265729-.0237231719.0018265729-.0109482995.0036531457-.0200700262.0073062914-.0310183257.0036420081-.0164280181.0072951538-.0328448986.0109482995-.0492729167.0091217267-.0328448986.0218965991-.0656897972.0346714715-.0948926877.0072951538-.0164168805.0145903076-.0310183257.0237120343-.045619771.0109594372-.0200700262.0219077367-.0383134795.0346714715-.0565680705.0255497448-.0364980443.0529260624-.0711695158.0839443882-.1021878415.0164280181-.0164168805.0328448986-.0310183257.0492729167-.045619771.0127748724-.0109482995.0255497448-.0200700262.0401400524-.0291917529.0218965991-.0164280181.045619771-.0328448986.0711695158-.045619771.0346714715-.018254591.0693429429-.0328448986.1058409872-.045619771.0164168805-.0054797186.0328448986-.0109482995.0492617791-.0146014453.0164280181-.0036531457.0346714715-.0072951538.0510994896-.0109482995.0036531457-.0018265729.0091217267-.0036531457.0127748724-.0036531457.0127748724-.0018265729.0255497448-.0036420081.0383134795-.0036420081.0237231719-.0018265729.045619771-.0036531457.0693429429-.0036531457h.0018265729c.1423390315,0,.2755451988.0437931981.3868547669.1186158596.0364980443.0237120343.0711695158.0529149248.1021878415.0839332505.1259110134.1259110134.204375683.2974417978.204375683.4890426085Z"/><path class="cls-3" d="M15.6895480734,1.4872089892v.0018265729c0,.0218965991-.0018265729.045619771-.0072951538.06751637v.0054685809c-.0018265729.0091217267-.0036531457.0164280181-.0073062914.0255497448-.0036420081.0109482995-.0072951538.0218965991-.0127637348.0310183257-.0146014453.04015119-.04015119.0766380967-.0711695158.1076675601-.0292028905.0310183257-.06751637.0565680705-.1076675601.0711695158-.0200700262.0091217267-.0419666253.0164168805-.0638632243.0200700262-.0054797186.0018265729-.0109482995.0018265729-.0164280181.0036420081-.0182434533.0018265729-.0346714715.0036531457-.0510883519.0036531457-.0930661148,0-.177010503-.0383246172-.2390471545-.0985346958-.0164280181-.0164280181-.0292028905-.0328448986-.0419777629-.0510994896-.0364869067-.0529149248-.0583946434-.118604722-.0583946434-.1879476649,0-.1861322297.1514607582-.3375929879.3394195607-.3375929879.0930661148,0,.1788259382.0383246172.2390471545.0985458334.045619771.045619771.0784646696.1058298496.091239542.1715307844.0054685809.0218965991.0072951538.0437931981.0072951538.06751637Z"/><path class="cls-3" d="M14.8793404952,1.0182364069c0,.1295530215-.0200700262.2554640349-.0565680705.3722533217-.0237231719.0766380967-.0547414977.1514607582-.0930661148.2208037011-.0583946434.1058409872-.1313795944.2025491101-.2153239825.2864934983-.0839332505.0839332505-.1806525111.1569293392-.2864934983.2153239825-.0437931981.0237231719-.0894129691.045619771-.136859313.0638632243-.1423278939.0565680705-.295615225.0875975339-.4561977099.0875975339-.164224493,0-.3211649698-.0328560362-.4671460094-.091239542-.0565680705-.0237231719-.113136141-.0510994896-.1660510658-.0821178153-.0255497448-.0146014453-.0510994896-.0328448986-.0766380967-.0492729167-.0292028905-.0200700262-.0565792082-.0419666253-.0839443882-.0638632243-.0310183257-.0255497448-.0602212162-.0529260624-.0875863962-.0802912424-.1350438777-.136859313-.2390471545-.3029215164-.2992683707-.4890426085v-.0018265729c.7463332163-.313869816,1.5492456407-.5036440537,2.4123681437-.5510903976v.0018265729c.0091217267.0529149248.0127748724.1058409872.0127748724.1605824849Z"/><path class="cls-3" d="M16.2187418719.9853915084c-.0036531457-.018254591-.0036531457-.0383246172-.0036531457-.0583946434,0-.0091217267,0-.0164280181.0018265729-.0255497448v.0200700262c0,.0218965991,0,.0419777629.0018265729.063874362Z"/><path class="cls-3" d="M22.8992984621,15.5672902057l-.0018265729-.0018265729c0,.0127748724,0,.0237231719-.0036531457.0364980443-.0054685809.0364980443-.0109482995.0748226615-.0164168805.1113095682-.04015119.2645968992-.0948926877.5255406528-.1605824849.7810158253-.0146014453.0565680705-.0310183257.1149627139-.0474463438.1733573573-.02736518.0967081229-.0766380967.2554640349-.1094829953.3503567226-.0127748724.0364980443-.0255497448.0748115239-.0383246172.113136141-.0802912424.2262722821-.1697042116.4470759832-.2682389073.6623999657-.0237231719.0529149248-.0492729167.1058409872-.0748226615.1569293392-.0802912424.1660622035-.1660510658.3284601236-.2591171807.4872160356v.0018265729c-.091239542.1605824849-.1879588025.3156963888-.290146644.4689725823-.0328448986.0492729167-.0656897972.0985458334-.1003612686.1459810396-.0529149248.0748226615-.1058409872.1478076125-.1605824849.2189771283-.0310183257.0437931981-.0638632243.085770961-.0967081229.1277375863-.2518220269.3193383969-.5255406528.6167801947-.8193293049.8923253935-.0200811638.0200700262-.04015119.0383134795-.0620477891.0565680705h-.0018265729c-.0200700262.0218965991-.0419666253.0401400524-.0620366515.0583946434-.085770961.0766380967-.1715307844.1514496206-.2591283183.2226191363-.0437931981.0364980443-.0875863962.0729960886-.1332061672.1076675601-.0985346958.0784646696-.1989071021.1532761934-.3010949436.2262722821-.0364869067.0255497448-.072984951.0510883519-.1113095682.0766380967-.0419666253.0292028905-.0839443882.0583946434-.1259110134.085770961-.0510883519.0346714715-.1040144144.06751637-.1569293392.1003612686-.3193383969.2007225373-.6532782391.3759064674-.9981663807.5255406528-.0547414977.0255497448-.1076564224.0474463438-.1623979201.0693429429-.0437931981.0182434533-.0875975339.0364869067-.131390732.0529149248-.136859313.0529149248-.2737186259.1003612686-.4124045117.1459810396-.1076564224.0346714715-.2171505554.06751637-.3266335507.0948926877-.113136141.0328448986-.2262722821.0602212162-.3394084231.0839443882-.0328448986.0072951538-.06751637.0145903076-.1021878415.0218965991-.1423390315.0310183257-.2883200712.0583946434-.4324745379.0766380967-.0657009348.0091217267-.131390732.0164168805-.1970805292.0255497448-.0419666253.0036420081-.0839443882.0091217267-.1277375863.0127748724-.2335674359.0237120343-.4707991551.0346714715-.7080197367.0346714715s-.4726145903-.0109594372-.704366591-.0346714715c-.0437931981-.0036531457-.0875863962-.0091328643-.131390732-.0127748724-.204375683-.0237231719-.4050982203-.0565680705-.6040053223-.0967192606-.0419666253-.0091217267-.0839332505-.0182434533-.1240844406-.02736518-.1149627139-.0237231719-.2280988549-.0510994896-.3394084231-.0839443882-.1076564224-.0273763176-.2134974097-.0583946434-.3193383969-.0930661148l-.0018265729-.0018265729c-.0547414977-.0182434533-.1113095682-.0364980443-.1660510658-.0547414977-.0565680705-.0182434533-.1113095682-.0401400524-.1660622035-.0602212162-.0091217267-.0036420081-.0200700262-.0072951538-.0291917529-.0109482995,0,0-.0018265729,0-.0054797186-.0018265729-.0036420081-.0018154352-.0091217267-.0036420081-.0145903076-.0054685809-.0018265729,0-.0036531457,0-.0054797186-.0018265729-.0054685809-.0018265729-.0109482995-.0036531457-.0164168805-.0054685809-.0091328643-.0054797186-.0200811638-.0091328643-.0292028905-.0109482995-.0018265729,0-.0036531457-.0018265729-.0054685809-.0018265729-.0036531457-.0018265729-.0054797186-.0018265729-.0091328643-.0036531457-.0145903076-.0054797186-.0310183257-.0109482995-.0492617791-.0182434533-.1478076125-.0583946434-.3503678603-.1496341854-.4762677361-.2098554016-.0474463438-.0237231719-.0967192606-.045619771-.1423390315-.0711695158-.1295641591-.0656897972-.2572906078-.1350327401-.3832016212-.2062022559q0-.0018265729-.0018265729-.0018265729c-.1240844406-.072984951-.2481688811-.1496230477-.3686113136-.2280988549,0-.0018154352-.0018265729-.0018154352-.0018265729-.0018154352-.0529149248-.0346714715-.1040144144-.0693429429-.1551027663-.1058409872-.0510994896-.0346714715-.1021878415-.0711695158-.1514607582-.1076675601-.0510883519-.0364869067-.1003612686-.072984951-.1496341853-.1113095682-.0474463438-.0364980443-.0948815501-.072984951-.1423278939-.1113095682-.0492729167-.04015119-.1003612686-.0802912424-.1496341854-.1222578677-.0474463438-.04015119-.0948926877-.0821178153-.1405124587-.1222690053-.0146014453-.0127748724-.0291917529-.02736518-.0437931981-.0401400524-.0328448986-.0292028905-.0638632243-.0565680705-.0948926877-.085770961-.045619771-.0419666253-.091239542-.0857598234-.1350327401-.1277264486-.295615225-.2883200712-.5693338509-.5985367414-.8193293049-.9288234378-.0310183257-.0419666253-.0620477891-.0839443882-.0930661148-.1277375863-.2390471545-.3321132693-.4561977099-.6842965648-.6441453747-1.0528967408-.0474463438-.0948926877-.0930661148-.1916119483-.1386858858-.290146644-.0237231719-.0529149248-.0474463438-.1058409872-.0711695158-.158755912s-.045619771-.1058409872-.06751637-.1605824849c-.0218965991-.0529149248-.0419666253-.1076675601-.0638632243-.1624090577-.0200811638-.0547414977-.04015119-.1094829953-.0602212162-.164224493-.0200700262-.0547526353-.0383246172-.1076675601-.0547414977-.1642356306l-.0018265729-.0018265729c-.018254591-.0547414977-.0364980443-.1113095682-.0529260624-.1678776387-.0364869067-.1113095682-.06751637-.222630274-.0967081229-.335766415-.0292028905-.1149627139-.0565680705-.2299254278-.0802912424-.3485301498-.0109482995-.0583946434-.0237231719-.1167892868-.0346714715-.1751839301s-.0200700262-.1167892868-.0291917529-.1751727925c-.0091328643-.0547526353-.018254591-.1113207058-.0255497448-.1660622035v-.0164168805c-.1332173049-.9799117898.6313705024-1.8503405842,1.6204151564-1.8503405842h11.9414316988l-.0018265729-.0018265729c.1988959644,0,.3868547669.0346714715.5602121242.1003612686.0529149248.0200700262.1021878415.04015119.1514496206.063874362.0492729167.0237231719.0985458334.0510883519.1441656044.0784646696.2244457092.1350327401.4105779389.3248069778.545610679.5474372518.0364980443.0620366515.0711695158.1259110134.1003612686.1916008106,0,.0018265729.0018265729.0018265729.0018265729.0018265729.0109482995.0255497448.0200700262.0492617791.0310183257.0748115239.091239542.2354051464.1259110134.4963488999.0948926877.7645878072Z"/><path class="cls-3" d="M26.4010725284,6.4798340529c-.1514607582,1.5200538878-1.585743685,2.9579899603-3.1057975728,3.1149192994-2.1788007078.2226191363-4.0054181201-1.5620205131-3.8503042162-3.7298729213.1313795944-1.8375657118,1.7207764251-3.2773283572,3.5619952826-3.2371771671.2664123345.0072951538.527356088.0419666253.777351542.1058298496-.140501321.2463534459-.209844264.5346735171-.1842945192.8430636144.0510883519.6788168462.5839241585,1.2463241242,1.2572724238,1.3393902391.4598508556.0638632243.8832036668-.0857598234,1.1915937642-.3613050222.2864934983.5693338509.4215262384,1.2280806709.3521832955,1.9251521081Z"/><g id="Frog"><g id="Frog-2"><path class="cls-4" d="M21.269761579,13.7443259391l.0018265729.0018265729h-11.9414316988c-.9890446541,0-1.7536324613.8704287945-1.6204151564,1.8503405842v.0164168805c.0072951538.0547414977.0164168805.1113095682.0255497448.1660622035.0091217267.0583835057.0182434533.1167781491.0291917529.1751727925s.0237231719.1167892868.0346714715.1751839301c.0237231719.118604722.0510883519.2335674359.0802912424.3485301498.0291917529.113136141.0602212162.2244568468.0967081229.335766415.0164280181.0565680705.0346714715.113136141.0529260624.1678776387l.0018265729.0018265729c-.018254591-.0547414977-.0364980443-.1113095682-.0529260624-.1678776387-.0364980443-.1113207058-.06751637-.222630274-.0967081229-.335766415-.0292028905-.1149627139-.0565680705-.2299254278-.0802912424-.3485301498-.0109482995-.0583946434-.0237231719-.1167892868-.0346714715-.1751839301s-.0200700262-.1167892868-.0292028905-.1751839301c-.0091217267-.0547414977-.0182434533-.1113095682-.0255386071-.1660510658v-.0164280181c-.1332173049-.9799117898.6313705024-1.8503294466,1.6204151564-1.8503294466h11.9414316988c.1970693916,0,.3832016212.0346714715.5565589785.0967081229-.1733573573-.0656897972-.3613161598-.1003612686-.5602121242-.1003612686ZM16.2169152991.9215171464v-.0200700262c-.0018265729.0091217267-.0018265729.0164280181-.0018265729.0255497448,0,.0200700262,0,.0401400524.0036531457.0583946434-.0018265729-.0218965991-.0018265729-.0419777629-.0018265729-.063874362ZM12.642145144,21.8682983204h-.0036420081c.0018154352,0,.0036420081.0018265729.0054685809.0018265729l-.0018265729-.0018265729Z"/><path class="cls-4" d="M28.1528672792,6.8758105465c.2463534459-1.7408464513-.3832016212-3.5747590174-1.8521560194-4.7919025264l-.04015119-.0328448986c-1.4634746796-1.2116526528-3.403228233-1.5054524425-5.0948129052-.9105688469-1.7919459408-.7353849167-3.7554226661-1.1404942746-5.8137809414-1.1404942746-2.0839191577,0-4.0692813444.4160576575-5.8813084491,1.1678705923-1.8758791914-.6897762834-4.0473847454-.2700766178-5.532756024,1.2171323714-1.0218895527,1.021878415-1.540123914,2.3667483727-1.540123914,3.7189246218,0,.2974417978.0255386071.5967101685.0748115239.8904988207C.908742274,9.399499396,0,12.2698918223,0,15.3519662232c0,3.3174684096,1.0528967408,6.3885945109,2.8412006735,8.899508488,2.7828060301,3.9050457138,7.3484251368,6.4506311623,12.5107655497,6.4506311623,5.1057612047,0,9.6294136861-2.4926593861,12.4195260077-6.3283732946,1.8448608656-2.5328105761,2.9306136426-5.6495564484,2.9306136426-9.0217663557,0-3.1331627528-.9379451645-6.0473595149-2.5492385943-8.4761556767ZM16.2169152991.9014471202v-.0018265729c.5072860618.0583946434.9926866622.1697042116,1.4561795258.3284601236.1551139039.0510994896.3047369516.1076675601.454371137.1715307844.2244568468.091239542.4434228375.1952539563.6569313848.3083900974-.0146014453.018254591-.0292028905.0346714715-.045619771.0492729167-.113136141.1094829953-.2664234721.177010503-.4361276837.177010503-.1824790839,0-.3467147145-.0766492344-.4616774284-.2007336749-.1697042116.131390732-.3813750484.2080288287-.6113004762.2080288287h-.0018265729c-.0346714715,0-.0693429429-.0018265729-.1021878415-.0054797186-.0291917529-.0018154352-.0583946434-.0072951538-.0857598234-.0127748724-.0127748724-.0018154352-.0255497448-.0054685809-.0383246172-.0072951538-.0255497448-.0054685809-.0492729167-.0127748724-.0729960886-.0200700262-.072984951-.0200700262-.1478076125-.0492729167-.2226191363-.085770961-.249995454-.1277264486-.4069247931-.3613050222-.4598508556-.6313705024-.0054685809-.0237231719-.0109482995-.045619771-.0145903076-.0693429429-.0054797186-.0255497448-.0091328643-.0510994896-.0109482995-.0766380967-.0018265729-.0164280181-.0036531457-.0310294634-.0018265729-.0474463438-.0036531457-.018254591-.0036531457-.0383246172-.0036531457-.0583946434,0-.0091217267,0-.0164280181.0018265729-.0255497448ZM15.853783704,2.0912143115c.0164168805-.0073062914.0328448986-.0127748724.0492617791-.0146014453.0164280181-.0036531457.0346714715-.0072951538.0510994896-.0109482995.0036531457-.0018265729.0091217267-.0036531457.0127748724-.0036531457.0127748724-.0018265729.0255497448-.0036420081.0383134795-.0036420081.0237231719-.0018265729.045619771-.0036531457.0693429429-.0036531457h.0018265729c.1423390315,0,.2755451988.0437931981.3868547669.1186158596.0364980443.0237120343.0711695158.0529149248.1021878415.0839332505.1259110134.1259110134.204375683.2974417978.204375683.4890426085,0,.0310294634-.0018154352.0602212162-.0072951538.0930661148-.0036531457.0255497448-.0072951538.0510994896-.0146014453.0784646696-.0145903076.0565680705-.0346714715.109494133-.0620366515.158755912-.0073062914.0164280181-.0164280181.0328448986-.0273763176.0474463438-.0127748724.018254591-.0255497448.0364980443-.0383134795.0529260624-.0146014453.0218965991-.0328560362.0419666253-.0529260624.0602100786-.0164168805.0146014453-.0328448986.0310294634-.0492729167.0437931981-.0127637348.0127748724-.02736518.0237231719-.0419666253.0310294634-.0072951538.0072951538-.0146014453.0109482995-.0218965991.0164168805-.0146014453.0091217267-.0310183257.018254591-.0474463438.0273763176-.0492617791.02736518-.1021878415.0474463438-.158755912.0620366515-.02736518.0073062914-.0529149248.0109482995-.0784646696.0146014453-.0310183257.0054797186-.0620477891.0073062914-.0930661148.0073062914-.1916008106,0-.3649581679-.0784758072-.4890426085-.2025602478-.0164168805-.0164168805-.0310183257-.0328448986-.045619771-.0492617791-.0273763176-.0328560362-.0510883519-.0693429429-.0711695158-.1076675601-.0218965991-.0364980443-.0383134795-.0766380967-.0510883519-.1186158596-.0091217267-.0291917529-.018254591-.0583835057-.0218965991-.0875863962-.0036531457-.0164168805-.0054797186-.0310183257-.0073062914-.0474463438-.0018154352-.0091217267-.0018154352-.0182434533-.0018154352-.02736518l-.0036531457-.0529260624c0-.0072951538,0-.0127748724.0018265729-.0200700262-.0018265729-.0164168805,0-.0346714715.0018265729-.0510883519,0-.0054797186.0018154352-.0091328643.0018154352-.0146014453,0-.0073062914,0-.0164280181.0018265729-.0237231719.0018265729-.0109482995.0036531457-.0200700262.0073062914-.0310183257.0036420081-.0164280181.0072951538-.0328448986.0109482995-.0492729167.0091217267-.0328448986.0200700262-.0656897972.0346714715-.0948926877.0072951538-.0164168805.0145903076-.0310183257.0237120343-.045619771.0091328643-.0200700262.0200811638-.0383134795.0346714715-.0565680705.0237231719-.0364980443.0510994896-.0711695158.0839443882-.1021878415.0164280181-.0164168805.0328448986-.0310183257.0492729167-.045619771.0127748724-.0109482995.0255497448-.0200700262.0401400524-.0291917529.0218965991-.018254591.045619771-.0328448986.0711695158-.045619771.0346714715-.018254591.0693429429-.0328448986.1058409872-.045619771ZM15.3519662232,1.1496160013c.0930661148,0,.1788259382.0383246172.2390471545.0985458334.045619771.045619771.0784646696.1058298496.091239542.1715307844.0054685809.0218965991.0072951538.0437931981.0072951538.06751637v.0018265729c0,.0218965991-.0018265729.045619771-.0072951538.06751637v.0054685809c-.0018265729.0091217267-.0036531457.0164280181-.0073062914.0255497448-.0036420081.0109482995-.0072951538.0218965991-.0127637348.0310183257-.0146014453.04015119-.04015119.0766380967-.0711695158.1076675601-.0292028905.0310183257-.06751637.0565680705-.1076675601.0711695158-.0200700262.0091217267-.0419666253.0164168805-.0638632243.0200700262-.0054797186.0018265729-.0109482995.0018265729-.0164280181.0036420081-.0182434533.0018265729-.0346714715.0036531457-.0510883519.0036531457-.0930661148,0-.177010503-.0383246172-.2390471545-.0985346958-.0164280181-.0164280181-.0292028905-.0328448986-.0419777629-.0510994896-.0364869067-.0529149248-.0583946434-.118604722-.0583946434-.1879476649,0-.1861322297.1514607582-.3375929879.3394195607-.3375929879ZM12.4541974792,1.4069177468c.7463332163-.313869816,1.5492456407-.5036440537,2.4123681437-.5510903976v.0018265729c.0091217267.0529149248.0127748724.1058409872.0127748724.1605824849,0,.1295530215-.0200700262.2554640349-.0565680705.3722533217-.0237231719.0766380967-.0547414977.1514607582-.0930661148.2208037011-.0583946434.1058409872-.1313795944.2025491101-.2153239825.2864934983-.0839332505.0839332505-.1806525111.1569293392-.2864934983.2153239825-.0437931981.0237231719-.0894129691.045619771-.136859313.0638632243-.1423278939.0565680705-.295615225.0875975339-.4561977099.0875975339-.0328448986,0-.06751637-.0018265729-.0985346958-.0036531457-.0018265729,0-.0036531457,0-.0036531457-.0018265729h-.0036420081c-.0054797186,0-.0109482995,0-.0164280181-.0018265729-.0091217267,0-.0164280181,0-.0237231719-.0018265729-.0328448986-.0036420081-.0638632243-.0091217267-.0948926877-.0145903076-.0383134795-.0073062914-.0766380967-.018254591-.1149627139-.0292028905-.0383134795-.0109482995-.0748115239-.0237231719-.1113095682-.0383134795-.0565680705-.0219077367-.113136141-.0492729167-.1660510658-.0821178153-.0255497448-.0146014453-.0510994896-.0328448986-.0766380967-.0492729167-.0292028905-.0200700262-.0565792082-.0419666253-.0839443882-.0638632243-.0310183257-.0255497448-.0602212162-.0529260624-.0875863962-.0802912424-.1350438777-.136859313-.2390471545-.3029215164-.2992683707-.4890426085v-.0018265729ZM4.279136746,8.9597297042l-.0273763176-.0346714715c-.6806434191-.8211558777-1.0164098341-1.8229754042-1.0164098341-2.8211306473,0-.0620477891.0018265729-.1240844406.0054797186-.1861322297.0437931981-1.0729779046.4762677361-2.1313543639,1.2883018871-2.943388515,1.0182252693-1.0164098341,2.4178478623-1.4415780806,3.7535960932-1.2518038428.3521832955.0510994896.7007134453.1441544668,1.0364798603.2810137797h.0018265729c.3886702022.1569404768.7609346615.3740910322,1.1021696575.6478096581.0200700262.0145903076.0383246172.0310183257.0565680705.045619771l.0346714715.02736518c.2737186259.2262722821.5127657804.4780943089.7153148905.7481709268,1.2937816057,1.7171232793,1.1824608999,4.193365785-.4105779389,5.7864046238l-.0054685809.0054797186c-1.3795414291,1.3795414291-3.4214828239,1.6477803364-5.0583259985.8540007763-.5510903976-.2664234721-1.0565498865-.6532782391-1.476249552-1.158737728ZM22.8992984621,15.5672902057l-.0018265729-.0018265729c0,.0127748724,0,.0237231719-.0036531457.0364980443-.0054685809.0364980443-.0109482995.0748226615-.0164168805.1113095682-.04015119.2645968992-.0948926877.5255406528-.1605824849.7810158253-.0146014453.0565680705-.0310183257.1149627139-.0474463438.1733573573-.02736518.0967081229-.0766380967.2554640349-.1094829953.3503567226-.0127748724.0364980443-.0255497448.0748115239-.0383246172.113136141-.0802912424.2262722821-.1697042116.4470759832-.2682389073.6623999657-.0237231719.0529149248-.0492729167.1058409872-.0748226615.1569293392-.0802912424.1660622035-.1660510658.3284601236-.2591171807.4872160356v.0018265729c-.091239542.1605824849-.1879588025.3156963888-.290146644.4689725823-.0328448986.0492729167-.0656897972.0985458334-.1003612686.1459810396-.0529149248.0748226615-.1058409872.1478076125-.1605824849.2189771283-.0310183257.0437931981-.0638632243.085770961-.0967081229.1277375863-.2518220269.3193383969-.5255406528.6167801947-.8193293049.8923253935-.0200811638.0200700262-.04015119.0383134795-.0620477891.0565680705h-.0018265729c-.0200700262.0218965991-.0419666253.0401400524-.0620366515.0583946434-.085770961.0766380967-.1715307844.1514496206-.2591283183.2226191363-.0437931981.0364980443-.0875863962.0729960886-.1332061672.1076675601-.0985346958.0784646696-.1989071021.1532761934-.3010949436.2262722821-.0364869067.0255497448-.072984951.0510883519-.1113095682.0766380967-.0419666253.0292028905-.0839443882.0583946434-.1259110134.085770961-.0510883519.0346714715-.1040144144.06751637-.1569293392.1003612686-.3193383969.2007225373-.6532782391.3759064674-.9981663807.5255406528-.0547414977.0255497448-.1076564224.0474463438-.1623979201.0693429429-.0437931981.0182434533-.0875975339.0364869067-.131390732.0529149248-.136859313.0529149248-.2737186259.1003612686-.4124045117.1459810396-.1076564224.0346714715-.2171505554.06751637-.3266335507.0948926877-.113136141.0328448986-.2262722821.0602212162-.3394084231.0839443882-.0328448986.0072951538-.06751637.0145903076-.1021878415.0218965991-.1423390315.0310183257-.2883200712.0583946434-.4324745379.0766380967-.0657009348.0091217267-.131390732.0164168805-.1970805292.0255497448-.0419666253.0036420081-.0839443882.0091217267-.1277375863.0127748724-.2335674359.0237120343-.4707991551.0346714715-.7080197367.0346714715s-.4726145903-.0109594372-.704366591-.0346714715c-.0437931981-.0036531457-.0875863962-.0091328643-.131390732-.0127748724-.204375683-.0237231719-.4050982203-.0565680705-.6040053223-.0967192606-.0419666253-.0091217267-.0839332505-.0182434533-.1240844406-.02736518-.1149627139-.0237231719-.2280988549-.0510994896-.3394084231-.0839443882-.1076564224-.0273763176-.2134974097-.0583946434-.3193383969-.0930661148l-.0018265729-.0018265729c-.0547414977-.0182434533-.1113095682-.0364980443-.1660510658-.0547414977-.0565680705-.0182434533-.1113095682-.0401400524-.1660622035-.0602212162-.0091217267-.0036420081-.0200700262-.0072951538-.0291917529-.0109482995,0,0-.0018265729,0-.0054797186-.0018265729-.0036420081-.0018154352-.0091217267-.0036420081-.0145903076-.0054685809-.0018265729,0-.0036531457,0-.0054797186-.0018265729-.0054685809-.0018265729-.0109482995-.0036531457-.0164168805-.0054685809-.0091328643-.0054797186-.0200811638-.0091328643-.0292028905-.0109482995-.0018265729,0-.0036531457-.0018265729-.0054685809-.0018265729-.0036531457-.0018265729-.0054797186-.0018265729-.0091328643-.0036531457-.0145903076-.0036531457-.0310183257-.0109482995-.0492617791-.0182434533-.1478076125-.0583946434-.3503678603-.1496341854-.4762677361-.2098554016-.0474463438-.0237231719-.0967192606-.045619771-.1423390315-.0711695158-.1295641591-.0656897972-.2572906078-.1350327401-.3832016212-.2062022559q0-.0018265729-.0018265729-.0018265729c-.1240844406-.072984951-.2481688811-.1496230477-.3686113136-.2280988549,0-.0018154352-.0018265729-.0018154352-.0018265729-.0018154352-.0529149248-.0346714715-.1040144144-.0693429429-.1551027663-.1058409872-.0510994896-.0346714715-.1021878415-.0711695158-.1514607582-.1076675601-.0510883519-.0364869067-.1003612686-.072984951-.1496341853-.1113095682-.0474463438-.0364980443-.0948815501-.072984951-.1423278939-.1113095682-.0492729167-.04015119-.1003612686-.0802912424-.1496341854-.1222578677-.0474463438-.04015119-.0948926877-.0821178153-.1405124587-.1222690053-.0146014453-.0127748724-.0291917529-.02736518-.0437931981-.0401400524-.0328448986-.0292028905-.0638632243-.0565680705-.0948926877-.085770961-.045619771-.0419666253-.091239542-.0857598234-.1350327401-.1277264486-.295615225-.2883200712-.5693338509-.5985367414-.8193293049-.9288234378-.0310183257-.0419666253-.0620477891-.0839443882-.0930661148-.1277375863-.2390471545-.3321132693-.4561977099-.6842965648-.6441453747-1.0528967408-.0474463438-.0948926877-.0930661148-.1916119483-.1386858858-.290146644-.0237231719-.0529149248-.0474463438-.1058409872-.0711695158-.158755912s-.045619771-.1058409872-.06751637-.1605824849c-.0218965991-.0529149248-.0419666253-.1076675601-.0638632243-.1624090577-.0200811638-.0547414977-.04015119-.1094829953-.0602212162-.164224493-.0200700262-.0547526353-.0383246172-.1076675601-.0547414977-.1642356306l-.0018265729-.0018265729c-.018254591-.0547414977-.0364980443-.1113095682-.0529260624-.1678776387-.0364869067-.1113095682-.06751637-.222630274-.0967081229-.335766415-.0292028905-.1149627139-.0565680705-.2299254278-.0802912424-.3485301498-.0109482995-.0583946434-.0237231719-.1167892868-.0346714715-.1751839301s-.0200700262-.1167892868-.0291917529-.1751727925c-.0091328643-.0547526353-.018254591-.1113207058-.0255497448-.1660622035v-.0164168805c-.1332173049-.9799117898.6313705024-1.8503405842,1.6204151564-1.8503405842h11.9414316988l-.0018265729-.0018265729c.1988959644,0,.3868547669.0346714715.5602121242.1003612686.0529149248.018254591.1021878415.04015119.1514496206.063874362.0492729167.0237231719.0985458334.0510883519.1441656044.0784646696.2244457092.1350327401.4105779389.3248069778.545610679.5474372518.0364980443.0620366515.0711695158.1259110134.1003612686.1916008106,0,.0018265729.0018265729.0018265729.0018265729.0018265729.0109482995.0255497448.0200700262.0492617791.0310183257.0748115239.091239542.2354051464.1259110134.4963488999.0948926877.7645878072ZM26.0726124049,9.2589869373l-.0073062914.0054797186c-.3649581679.3649581679-.777351542.6514516662-1.2153057985.8612959301-1.7737024875.8521853411-3.9853480939.4434228375-5.319269752-1.1660328818l-.02736518-.0346714715c-.6806545567-.8211558777-1.0164098341-1.8229754042-1.0164098341-2.8211306473,0-1.1368411289.4361276837-2.2700402498,1.2955970409-3.1295207447.1204424325-.1204312948.2463534459-.2335674359.3777330403-.3375818502.6605733929-.5237140799,1.4379360725-.8339307501,2.239021924-.9251702921.7591080886-.0894129691,1.540123914.0200700262,2.2590919502.3284601236.3795484755.1624090577.7426912082.381386186,1.0747933398.6569313848l.0328560362.02736518c.2992572331.2481688811.5583855514.5273672256.771882961.8284621692.4799208818.6660419738.7536395077,1.4397515077.8156761592,2.2280624869.0985458334,1.2408555433-.322980405,2.5200357038-1.2809955957,3.4780508945Z"/><path class="cls-9" d="M27.3536080006,5.7809360428c-.0620366515-.7883109792-.3357552774-1.5620205131-.8156761592-2.2280624869-.2134974097-.3010949436-.472625728-.5802932881-.771882961-.8284621692l-.0328560362-.02736518c-.3321021317-.2755451988-.6952448643-.494522327-1.0747933398-.6569313848-.7189680362-.3083900974-1.4999838616-.4178730927-2.2590919502-.3284601236-.8010858515.091239542-1.5784485312.4014562122-2.239021924.9251702921-.1313795944.1040144144-.2572906078.2171505554-.3777330403.3375818502-.8594693573.8594804949-1.2955970409,1.9926796158-1.2955970409,3.1295207447,0,.9981552431.3357552774,1.9999747696,1.0164098341,2.8211306473l.02736518.0346714715c1.3339216581,1.6094557193,3.5455672645,2.0182182229,5.319269752,1.1660328818.4379542565-.209844264.8503476306-.4963377623,1.2153057985-.8612959301l.0073062914-.0054797186c.9580151907-.9580151907,1.3795414291-2.2371953512,1.2809955957-3.4780508945ZM26.4010725284,6.4798340529c-.1514607582,1.5200538878-1.585743685,2.9579899603-3.1057975728,3.1149192994-2.1788007078.2226191363-4.0054181201-1.5620205131-3.8503042162-3.7298729213.1313795944-1.8375657118,1.7207764251-3.2773283572,3.5619952826-3.2371771671.2664123345.0072951538.527356088.0419666253.777351542.1058298496-.140501321.2463534459-.209844264.5346735171-.1842945192.8430636144.0510883519.6788168462.5839241585,1.2463241242,1.2572724238,1.3393902391.4598508556.0638632243.8832036668-.0857598234,1.1915937642-.3613050222.2864934983.5693338509.4215262384,1.2280806709.3521832955,1.9251521081Z"/><path class="cls-8" d="M26.4010725284,6.4798340529c-.1514607582,1.5200538878-1.585743685,2.9579899603-3.1057975728,3.1149192994-2.1788007078.2226191363-4.0054181201-1.5620205131-3.8503042162-3.7298729213.1313795944-1.8375657118,1.7207764251-3.2773283572,3.5619952826-3.2371771671.2664123345.0072951538.527356088.0419666253.777351542.1058298496-.140501321.2463534459-.209844264.5346735171-.1842945192.8430636144.0510883519.6788168462.5839241585,1.2463241242,1.2572724238,1.3393902391.4598508556.0638632243.8832036668-.0857598234,1.1915937642-.3613050222.2864934983.5693338509.4215262384,1.2280806709.3521832955,1.9251521081Z"/><path class="cls-1" d="M22.8044057744,14.8027023985c-.0109482995-.0255497448-.0200700262-.0492617791-.0310183257-.0748115239,0,0-.0018265729,0-.0018265729-.0018265729-.0291917529-.0656897972-.0638632243-.1295641591-.1003612686-.1916008106-.1350327401-.222630274-.3211649698-.4124045117-.545610679-.5474372518-.045619771-.0273763176-.0948926877-.0547414977-.1441656044-.0784646696-.0492617791-.0237231719-.0985346958-.0438043358-.1514496206-.063874362-.1733573573-.0656897972-.3613161598-.1003612686-.5602121242-.1003612686l.0018265729.0018265729h-11.9414316988c-.9890446541,0-1.7536324613.8704287945-1.6204151564,1.8503405842v.0164168805c.0072951538.0547414977.0164168805.1113095682.0255497448.1660622035.0091217267.0583835057.0182434533.1167781491.0291917529.1751727925s.0237231719.1167892868.0346714715.1751839301c.0237231719.118604722.0510883519.2335674359.0802912424.3485301498.0291917529.113136141.0602212162.2244568468.0967081229.335766415.0164280181.0565680705.0346714715.113136141.0529260624.1678776387l.0018265729.0018265729c.0164168805.0565680705.0346714715.1094829953.0547414977.1642356306.0200700262.0547414977.0401400524.1094829953.0602212162.164224493.0218965991.0547414977.0419666253.109494133.0638632243.1624090577.0218965991.0547414977.0437931981.1076675601.06751637.1605824849s.0474463438.1058409872.0711695158.158755912c.045619771.0985346958.091239542.1952539563.1386858858.290146644.1879476649.368600176.4050982203.7207834715.6441453747,1.0528967408.0310183257.0437931981.0620477891.085770961.0930661148.1277375863.249995454.3302866964.5237140799.6405033667.8193293049.9288234378.0437931981.0419666253.0894129691.0857598234.1350327401.1277264486.0310294634.0292028905.0620477891.0565680705.0948926877.085770961.0146014453.0127748724.0291917529.02736518.0437931981.0401400524.045619771.04015119.0930661148.0821178153.1405124587.1222690053.0492729167.0419666253.1003612686.0821066777.1496341854.1222578677.0474463438.0383246172.0948815501.0748115239.1423278939.1113095682.0492729167.0383246172.0985458334.0748226615.1496341853.1113095682.0492729167.0364980443.1003612686.0729960886.1514607582.1076675601.0510883519.0364980443.1021878415.0711695158.1551027663.1058409872,0,0,.0018265729,0,.0018265729.0018154352.1204424325.0784758072.244526873.1551139039.3686113136.2280988549q.0018265729,0,.0018265729.0018265729c.1259110134.0711695158.2536374621.1405124587.3832016212.2062022559.045619771.0255497448.0948926877.0474463438.1423390315.0711695158.1258998758.0602212162.3284601236.1514607582.4762677361.2098554016.0182434533.0072951538.0346714715.0127637348.0492617791.0182434533.0036531457.0018265729.0054797186.0018265729.0091328643.0036531457.0018154352,0,.0036420081.0018265729.0054685809.0018265729.0091217267.0018154352.0200700262.0054685809.0292028905.0109482995.0054685809.0018154352.0109482995.0036420081.0164168805.0054685809.0018265729.0018265729.0036531457.0018265729.0054797186.0018265729.0054685809.0018265729.0109482995.0036531457.0145903076.0054685809.0036531457.0018265729.0054797186.0018265729.0054797186.0018265729.0091217267.0036531457.0200700262.0073062914.0291917529.0109482995.0547526353.0200811638.109494133.0419777629.1660622035.0602212162.0547414977.0182434533.1113095682.0364980443.1660510658.0547414977.1058409872.0346714715.2116819745.0656897972.3193383969.0930661148.1113095682.0328448986.2244568468.0602212162.3394084231.0839443882.04015119.0091217267.0821178153.0182434533.1240955782.02736518.1988959644.04015119.3996296393.0729960886.6040053223.0967192606.0437931981.0036531457.0875863962.0091217267.1313795944.0127748724.2317520007.0237231719.4671460094.0346714715.704366591.0346714715.2372317192,0,.4744523008-.0109482995.7080197367-.0346714715.0437931981-.0036531457.085770961-.0091217267.1277375863-.0127748724.0656897972-.0091217267.131390732-.0164280181.1970805292-.0255497448.1441544668-.0182434533.2901355064-.045619771.4324745379-.0766380967.0346714715-.0073062914.0693429429-.0146014453.1021878415-.0218965991.113136141-.0237231719.2262722821-.0510994896.3394084231-.0839443882.109494133-.0273763176.2189771283-.0602212162.3266446883-.0948926877.1386747482-.045619771.2755340611-.0930549772.4123933741-.1459810396.0438043358-.0164168805.0875975339-.0346714715.131390732-.0529149248.0547414977-.0218965991.1076564224-.0437931981.1624090577-.0693429429.344877004-.1496341854.6788168462-.3248181155.9981552431-.5255406528.0529149248-.0328448986.1058409872-.0656897972.1569293392-.1003612686.0419777629-.0273763176.0839443882-.0565680705.1259110134-.085770961.0383246172-.0255386071.0748226615-.0510883519.1113207058-.0766380967.1021878415-.0729960886.2025491101-.1478076125.3010838059-.2262722821.045619771-.0346714715.0894129691-.0711695158.1332061672-.1076675601.0875975339-.0711583781.1733573573-.1459810396.2591283183-.2226191363.0218965991-.0200700262.0419666253-.0383246172.0638632243-.0565680705h.0018265729c.0200700262-.0218965991.0401400524-.04015119.0602212162-.0583946434.2937886521-.2755451988.567507278-.5729869966.8193293049-.8923253935.0328448986-.0419666253.0656897972-.0839332505.0967081229-.1277375863.0547526353-.0711583781.1076675601-.1441544668.1605824849-.2189659906.0346714715-.0474463438.06751637-.0967192606.1003612686-.1459921773.1021989791-.1514496206.1989071021-.3083900974.2919732169-.4671460094v-.0018265729c.091239542-.1605713472.1769993654-.322980405.2572906078-.4890426085.0255497448-.0510883519.0510994896-.1040144144.0748226615-.1569293392.0985346958-.2153239825.1879476649-.4361276837.2682389073-.6623999657.0146014453-.0364980443.0273763176-.0748115239.0383246172-.113136141.0328448986-.0967081229.0821178153-.2536485997.1094829953-.3503567226.0164280181-.0583946434.0328448986-.1167892868.0474463438-.1733573573.0656897972-.2554751726.1204424325-.5164189261.1605824849-.7810046877.0072951538-.0492729167.0146014453-.0985458334.0200700262-.1478187501.0310294634-.2664123345-.0036420081-.5255295151-.091239542-.7609346615ZM21.9558847166,15.6731311929c-.2208037011,1.3029033324-.8102075782,2.534637149-1.717134417,3.5382721107-.1769993654.1952539563-.3613050222.3777330403-.5547324056.5474372518-1.2280806709,1.0893947851-2.7882857487,1.7007063989-4.3831511604,1.7007063989s-3.153232779-.6113116138-4.3831400227-1.7007063989c-.1934385211-.1697042116-.3777330403-.3540098684-.5529169704-.5474372518-.9069157011-1.0036349617-1.4981572887-2.2353687783-1.7189498522-3.5382721107-.0894129691-.5310203714.3266335507-1.0145832612.8649490759-1.0145832612h11.5819421118c.5383155252,0,.9543731826.4835628899.8631336406,1.0145832612Z"/><path class="cls-7" d="M21.9558819322,15.6731298007c-.2208009167,1.302900548-.8102075782,2.5346343646-1.7171288482,3.5382707185-.1770049342.1952539563-.3613091988.3777330403-.5547365823.5474372518-1.229908636-1.0894003539-2.7901053606-1.7007050067-4.3831469838-1.7007050067s-3.1550635284.6113046528-4.383148376,1.7007050067c-.1934273835-.1697042116-.3777316481-.3540098684-.5529114016-.5474372518-.90692127-1.0036349617-1.4981531121-2.2353687783-1.7189526366-3.5382693263-.0894150574-.5310148025.3266377273-1.0145832612.8649504681-1.0145832612h.0401456212c.1040130222.9945104506.5985311726,1.7517989274,1.1788147152,1.7590982578.277367595.0036489691.5364889523-.164231454.742689816-.4507235601.2025518946.2810179563.4543725292.4470731988.7280911551.4507235601.2226247052.0036489691.4324759301-.1040130222.6113046528-.2937914365.1770049342.1843042646.3813806172.2919662559.5967059919.2937914365.2518206346.0036489691.48721882-.1350341323.6842965648-.3722574983.1897784144.231747824.41970245.368607137.6642237542.3722574983.2791927757.0036489691.5383127408-.1660566346.7445149966-.4507235601.2025518946.2810179563.4543725292.4470731988.7262673667.4507235601.2226247052.0036489691.4324759301-.1040130222.6131298334-.2937914365.1751797535.1843042646.3795568287.2919662559.5967059919.2937914365.1970777448.0018251807.3832057978-.0802912424.5492624325-.231747824.1624062733.1478076125.3430601766.2299240356.532838591.231747824.2481716655.0036489691.4817446702-.1313851632.6769972344-.3649581679.1879532337.2280988549.4160520886.3631329872.6587496044.3649581679.5875828731.0072993304,1.0912241423-.7554632962,1.1952385567-1.7590982578h.0419694097c.5383127408,0,.9543648294.4835698509.8631252874,1.0145832612h0l.0000027844-.0000013922Z"/><path class="cls-6" d="M21.0507844507,14.6585465395c-.1040144144,1.0036349617-.6076556837,1.7663975883-1.1952385567,1.7590982578-.2426975158-.0018251807-.4707963707-.136859313-.6587496044-.3649581679-.1952525641.2335730047-.4288255688.368607137-.6769972344.3649581679-.1897784144-.0018251807-.3704323177-.0839402115-.532838591-.231747824-.1660566346.1514579738-.3521846877.2335730047-.5492624325.231747824-.2171505554-.0018251807-.4215262384-.1094871719-.5967059919-.2937914365-.1806539033.1897784144-.3905051283.2974404056-.6131298334.2937914365-.2718934453-.0036489691-.5237154721-.1697056038-.7262673667-.4507235601-.2062008637.2846669254-.4653222209.4543725292-.7445149966.4507235601-.2445213042-.0036489691-.4744453398-.1405082821-.6642237542-.3722574983-.1970777448.237223366-.4324759301.3759064674-.6842965648.3722574983-.2153253747-.0018251807-.41970245-.1094871719-.5967059919-.2937914365-.1788301148.1897784144-.3886799476.2974404056-.6113046528.2937914365-.2737186259-.0036489691-.5255392606-.1697056038-.7280911551-.4507235601-.2062008637.2864921061-.4653222209.4543725292-.742689816.4507235601-.5802835426-.0072993304-1.0748016931-.7645878072-1.1788147152-1.7590982578h11.4998312576Z"/><path class="cls-5" d="M19.6840165018,19.7588377711c-1.2280848475,1.0894003539-2.7882801799,1.7007063989-4.3831469838,1.7007063989s-3.1532383478-.611306045-4.383148376-1.7007063989c1.2280848475-1.0894003539,2.7882801799-1.7007050067,4.383148376-1.7007050067s3.1532383478.6113046528,4.3831469838,1.7007050067Z"/><path class="cls-9" d="M11.2297588163,3.4725823135c-.2025491101-.2700766178-.4415962646-.5218986447-.7153148905-.7481709268l-.0346714715-.02736518c-.0182434533-.0146014453-.0364980443-.0310294634-.0565680705-.045619771-.341234996-.2737186259-.7134994553-.4908691813-1.1021696575-.6478096581h-.0018265729c-.335766415-.136859313-.6842965648-.2299142902-1.0364798603-.2810137797-1.335748231-.1897742378-2.7353708239.2353940087-3.7535960932,1.2518038428-.8120341511.8120341511-1.244508689,1.8704106104-1.2883018871,2.943388515-.0036531457.0620477891-.0054797186.1240844406-.0054797186.1861322297,0,.9981552431.335766415,1.9999747696,1.0164098341,2.8211306473l.0273763176.0346714715c.4196996655.5054594889.9251591545.8923142559,1.476249552,1.158737728,1.6368431745.7937795601,3.6787845694.5255406528,5.0583259985-.8540007763l.0054685809-.0054797186c1.5930388388-1.5930388388,1.7043595446-4.0692813444.4105779389-5.7864046238ZM7.2790933315,9.5911002066c-1.6021717031-.1769993654-2.894126736-1.4707809711-3.0729526742-3.0711261013-.0200700262-.1842945192-.0273763176-.3667736031-.0182434533-.5437841061,0-.0328448986.0018154352-.0638632243.0054685809-.0948926877.0018265729-.0419666253.0054797186-.0857598234.0109482995-.1277264486.0054797186-.0583946434.0127748724-.1186158596.0218965991-.177010503.0073062914-.0510883519.0164280181-.1021878415.0273763176-.1514607582.0109482995-.0583835057.0255497448-.118604722.0401400524-.1769993654.0146014453-.0547414977.0292028905-.1113095682.0474463438-.1660510658.0146014453-.0492729167.0328448986-.0985458334.0492729167-.1478187501.0802912424-.2226191363.1824790839-.4342899732.3047369516-.6331970752l.0018265729-.0018265729c.0255497448-.0437931981.0547414977-.0875863962.0839443882-.1313795944.0310183257-.045619771.0620366515-.091239542.0967081229-.136859313.0547414977-.0748226615.113136141-.1459921773.177010503-.2153239825.0218965991-.0292028905.0474352062-.0565680705.0748115239-.0839443882.0146014453-.0182434533.0310183257-.0346714715.0492729167-.0510994896.0145903076-.0182434533.0328448986-.0346714715.0510883519-.0510883519.3065635245-.3029215164.6678796843-.5474372518,1.0675093237-.7189680362.045619771-.0200700262.0894129691-.0383246172.1350327401-.0547414977.1459810396-.0565680705.295615225-.1021878415.4507179913-.136859313.0364980443-.0091217267.0748226615-.018254591.1113207058-.0237231719.0985346958-.0200700262.1970693916-.0364980443.2974306602-.045619771.0620477891-.0073062914.1259110134-.0127748724.1897853754-.0164280181.0638632243-.0036420081.1277375863-.0054685809.1934273835-.0054685809.2700654802,0,.5310092337.0310183257.7828312606.0894129691-.1532761934.2828403526-.2134974097.6259019214-.1459810396.9799117898.1167892868.6222487757.6441565124,1.1076493761,1.2755270147,1.1788188918.454371137.0510883519.8740819402-.1040144144,1.1751657461-.3886813398.2591171807.4872160356.4051093579,1.0419484412.4051093579,1.6331788912,0,2.0601959858-1.7828242142,3.7025077413-3.8886288333,3.4707557407Z"/><path class="cls-8" d="M11.1677221649,6.1203444659c0,2.0601959858-1.7828242142,3.7025077413-3.8886288333,3.4707557407-1.6021717031-.1769993654-2.894126736-1.4707809711-3.0729526742-3.0711261013-.0200700262-.1842945192-.0273763176-.3667736031-.0182434533-.5437841061,0-.0328448986.0018154352-.0638632243.0054685809-.0948926877.0018265729-.0419666253.0054797186-.0857598234.0109482995-.1277264486.0054797186-.0583946434.0127748724-.1186158596.0218965991-.177010503.0073062914-.0510883519.0164280181-.1021878415.0273763176-.1514607582.0109482995-.0583835057.0255497448-.118604722.0401400524-.1769993654.0146014453-.0565680705.0310294634-.1113095682.0474463438-.1660510658.0146014453-.0492729167.0328448986-.0985458334.0492729167-.1478187501.0802912424-.2226191363.1824790839-.4342899732.3047369516-.6331970752l.0018265729-.0018265729c.0255497448-.0437931981.0547414977-.0875863962.0839443882-.1313795944.0310183257-.0474463438.0638632243-.0930661148.0967081229-.136859313.0547414977-.0748226615.113136141-.1459921773.177010503-.2153239825.0237231719-.0292028905.0492617791-.0565680705.0748115239-.0839443882.0146014453-.0182434533.0310183257-.0346714715.0492729167-.0510994896.0164168805-.0182434533.0328448986-.0346714715.0510883519-.0510883519.3065635245-.3029215164.6678796843-.5474372518,1.0675093237-.7189680362.045619771-.0200700262.0894129691-.0383246172.1350327401-.0547414977.1459810396-.0565680705.295615225-.1021878415.4507179913-.136859313.0364980443-.0091217267.0729960886-.0164280181.1113207058-.0237231719.0985346958-.0200700262.1970693916-.0364980443.2974306602-.045619771.0620477891-.0073062914.1259110134-.0127748724.1897853754-.0164280181.0638632243-.0036420081.1277375863-.0054685809.1934273835-.0054685809.2700654802,0,.5310092337.0310183257.7828312606.0894129691-.1532761934.2828403526-.2134974097.6259019214-.1459810396.9799117898.1167892868.6222487757.6441565124,1.1076493761,1.2755270147,1.1788188918.454371137.0510883519.8740819402-.1040144144,1.1751657461-.3886813398.2591171807.4872160356.4051093579,1.0419484412.4051093579,1.6331788912Z"/><path class="cls-2" d="M21.0507844507,14.6585465395c-.1040144144,1.0036349617-.6076556837,1.7663975883-1.1952385567,1.7590982578-.2426975158-.0018251807-.4707963707-.136859313-.6587496044-.3649581679-.1952525641.2335730047-.4288255688.368607137-.6769972344.3649581679-.1897784144-.0018251807-.3704323177-.0839402115-.532838591-.231747824-.1660566346.1514579738-.3521846877.2335730047-.5492624325.231747824-.2171505554-.0018251807-.4215262384-.1094871719-.5967059919-.2937914365-.1806539033.1897784144-.3905051283.2974404056-.6131298334.2937914365-.2718934453-.0036489691-.5237154721-.1697056038-.7262673667-.4507235601-.2062008637.2846669254-.4653222209.4543725292-.7445149966.4507235601-.2445213042-.0036489691-.4744453398-.1405082821-.6642237542-.3722574983-.1970777448.237223366-.4324759301.3759064674-.6842965648.3722574983-.2153253747-.0018251807-.41970245-.1094871719-.5967059919-.2937914365-.1788301148.1897784144-.3886799476.2974404056-.6113046528.2937914365-.2737186259-.0036489691-.5255392606-.1697056038-.7280911551-.4507235601-.2062008637.2864921061-.4653222209.4543725292-.742689816.4507235601-.5802835426-.0072993304-1.0748016931-.7645878072-1.1788147152-1.7590982578h11.4998312576Z"/><path class="cls-1" d="M18.7843973467,1.7080015527c-.0146014453.018254591-.0292028905.0346714715-.045619771.0492729167-.113136141.1094829953-.2664234721.177010503-.4361276837.177010503-.1824790839,0-.3467147145-.0766492344-.4616774284-.2007336749-.1697042116.131390732-.3813750484.2080288287-.6113004762.2080288287h-.0018265729c-.0346714715,0-.0693429429-.0018265729-.1021878415-.0054797186-.0291917529-.0018154352-.0583946434-.0072951538-.0857598234-.0127748724-.0127748724-.0018154352-.0255497448-.0054685809-.0383246172-.0072951538-.0255497448-.0054685809-.0492729167-.0127748724-.0729960886-.0200700262-.072984951-.0200700262-.1478076125-.0492729167-.2226191363-.085770961-.249995454-.1277264486-.4069247931-.3613050222-.4598508556-.6313705024-.0054685809-.0237231719-.0109482995-.045619771-.0145903076-.0693429429-.0054797186-.0255497448-.0091328643-.0510994896-.0109482995-.0766380967-.0018265729-.0164280181-.0036531457-.0310294634-.0018265729-.0474463438-.0018265729-.0218965991-.0018265729-.0419777629-.0018265729-.063874362v-.0218965991c.5072860618.0583946434.9926866622.1697042116,1.4561795258.3284601236.1551139039.0510994896.3047369516.1076675601.454371137.1715307844.2244568468.091239542.4434228375.1952539563.6569313848.3083900974Z"/><path class="cls-1" d="M16.2187418719.9853915084c-.0036531457-.018254591-.0036531457-.0383246172-.0036531457-.0583946434,0-.0091217267,0-.0164280181.0018265729-.0255497448v.0200700262c0,.0218965991,0,.0419777629.0018265729.063874362Z"/><path class="cls-1" d="M14.8793404952,1.0182364069c0,.1295530215-.0200700262.2554640349-.0565680705.3722533217-.0237231719.0766380967-.0547414977.1514607582-.0930661148.2208037011-.0583946434.1058409872-.1313795944.2025491101-.2153239825.2864934983-.0839332505.0839332505-.1806525111.1569293392-.2864934983.2153239825-.0437931981.0237231719-.0894129691.045619771-.136859313.0638632243-.1423278939.0547414977-.295615225.085770961-.4561977099.085770961-.164224493,0-.3211649698-.0328448986-.4671460094-.0894129691-.0565680705-.0237231719-.113136141-.0510994896-.1660510658-.0821178153-.0255497448-.0146014453-.0510994896-.0328448986-.0766380967-.0492729167-.0292028905-.0200700262-.0565792082-.0419666253-.0839443882-.0638632243-.0310183257-.0255497448-.0602212162-.0529260624-.0875863962-.0802912424-.1350438777-.136859313-.2390471545-.3029215164-.2992683707-.4890426085v-.0018265729c.7463332163-.313869816,1.5492456407-.5036440537,2.4123681437-.5510903976v.0018265729c.0091217267.0529149248.0127748724.1058409872.0127748724.1605824849Z"/><path class="cls-1" d="M15.6895480734,1.4872089892v.0018265729c0,.0218965991-.0018265729.045619771-.0072951538.06751637-.0018265729.0091217267-.0036531457.0200700262-.0073062914.0310183257-.0036420081.0109482995-.0072951538.0218965991-.0127637348.0310183257-.0164280181.04015119-.0419777629.0766380967-.0711695158.1076675601-.0310294634.0291917529-.06751637.0547414977-.1076675601.0711695158-.0200700262.0091217267-.0419666253.0164168805-.0638632243.0200700262-.0054797186.0018265729-.0109482995.0018265729-.0164280181.0036420081-.0182434533.0018265729-.0346714715.0036531457-.0510883519.0036531457-.0930661148,0-.177010503-.0383246172-.2390471545-.0985346958-.0164280181-.0164280181-.0292028905-.0328448986-.0419777629-.0510994896-.0364869067-.0529149248-.0583946434-.118604722-.0583946434-.1879476649,0-.1861322297.1514607582-.3375929879.3394195607-.3375929879.0930661148,0,.1788259382.0383246172.2390471545.0985458334.045619771.045619771.0784646696.1058298496.091239542.1715307844.0054685809.0218965991.0072951538.0437931981.0072951538.06751637Z"/><path class="cls-1" d="M16.7698211318,2.7463079858c0,.0310294634-.0018154352.0602212162-.0072951538.0930661148-.0036531457.0255497448-.0072951538.0510994896-.0146014453.0784646696-.0145903076.0565680705-.0346714715.109494133-.0620366515.158755912-.0073062914.0164280181-.0164280181.0328448986-.0273763176.0474463438-.0127748724.018254591-.0255497448.0364980443-.0383134795.0529260624-.0164280181.0218965991-.0346714715.0419666253-.0529260624.0602100786-.0164168805.0146014453-.0328448986.0310294634-.0492729167.0437931981-.0145903076.0109482995-.02736518.0219077367-.0419666253.0310294634-.0072951538.0072951538-.0146014453.0109482995-.0218965991.0164168805-.0146014453.0091217267-.0310183257.018254591-.0474463438.0273763176-.0492617791.02736518-.1021878415.0474463438-.158755912.0620366515-.02736518.0073062914-.0529149248.0109482995-.0784646696.0146014453-.0310183257.0054797186-.0620477891.0073062914-.0930661148.0073062914-.1916008106,0-.3649581679-.0784758072-.4890426085-.2025602478-.0164168805-.0164168805-.0310183257-.0328448986-.045619771-.0492617791-.0273763176-.0328560362-.0510883519-.0693429429-.0711695158-.1076675601-.0072951538-.0146014453-.0145903076-.0310183257-.0218965991-.0474463438-.0109482995-.0237231719-.0200700262-.0474463438-.0291917529-.0711695158-.0054797186-.0200700262-.0109482995-.0383134795-.0146014453-.0583835057-.0036531457-.0091328643-.0054685809-.0200811638-.0072951538-.0292028905-.0036531457-.0164168805-.0054797186-.0310183257-.0073062914-.0474463438-.0018154352-.0091217267-.0018154352-.0182434533-.0018154352-.02736518l-.0036531457-.0529260624c0-.0072951538,0-.0127748724.0018265729-.0200700262-.0018265729-.0164168805,0-.0346714715.0018265729-.0510883519,0-.0054797186.0018154352-.0091328643.0018154352-.0146014453.0018265729-.018254591.0054797186-.0364980443.0091328643-.0547414977.0036420081-.0164280181.0072951538-.0328448986.0109482995-.0492729167.0091217267-.0328448986.0218965991-.0656897972.0346714715-.0948926877.0072951538-.0164168805.0145903076-.0310183257.0237120343-.045619771.0109594372-.0200700262.0219077367-.0383134795.0346714715-.0565680705.0255497448-.0364980443.0529260624-.0711695158.0839443882-.1021878415.0164280181-.0164168805.0328448986-.0310183257.0492729167-.045619771.0127748724-.0109482995.0255497448-.0200700262.0401400524-.0291917529.0218965991-.0164280181.045619771-.0328448986.0711695158-.045619771.0346714715-.018254591.0693429429-.0328448986.1058409872-.045619771.0164168805-.0054797186.0328448986-.0109482995.0492617791-.0146014453.0164280181-.0036531457.0346714715-.0072951538.0510994896-.0109482995.0164168805-.0036531457.0346714715-.0054797186.0510883519-.0072951538.0237231719-.0018265729.045619771-.0036531457.0693429429-.0036531457h.0018265729c.1423390315,0,.2755451988.0437931981.3868547669.1186158596.0364980443.0237120343.0711695158.0529149248.1021878415.0839332505.1259110134.1259110134.204375683.2974417978.204375683.4890426085Z"/></g></g></svg>